<svg width="1704" height="512" viewBox="0 0 1704 512" fill="none" xmlns="http://www.w3.org/2000/svg">
<path d="M1646.68 306.437L1594.49 265.466C1593.47 265.028 1588.59 267.319 1586.96 267.757C1581.9 269.139 1577.66 269.712 1572.54 268.162C1592.08 289.456 1611.83 309.806 1625.17 336.053C1642.47 370.049 1648.38 395.353 1641.63 433.796C1638.74 450.508 1633.79 469.376 1623.57 482.955C1627.75 473.52 1631.31 463.884 1633.62 453.776C1645.36 402.226 1632.63 365.164 1606.88 321.734C1598.16 307.01 1586.82 289.489 1575.62 276.72C1574.27 275.17 1567.96 268.33 1566.73 267.589C1563.99 265.972 1560.22 266.511 1558.86 269.644C1558.18 271.363 1558.86 272.306 1558.76 273.89C1558.73 274.429 1558.79 276.113 1557.81 275.776C1556.49 274.092 1556.62 271.598 1556.66 269.543C1553.36 271.026 1550.51 272.104 1547.46 269.375L1544.03 264.287C1543.66 268.364 1542.61 272.811 1540.67 276.417C1539.79 278.068 1537.08 280.83 1536.97 282.212C1537.35 286.794 1538.06 291.545 1538.43 296.161C1540.23 321.43 1541.72 348.25 1540.77 373.621C1540.71 375.339 1540.64 377.058 1540.5 378.776C1539.52 394.342 1536.63 409.773 1532.46 424.834C1528.59 438.85 1523.88 453.305 1515.9 465.839C1511.73 472.409 1506.3 480.394 1499.61 484.976C1498.53 483.494 1502.09 479.99 1502.94 478.541C1504.43 475.946 1505.82 473.285 1507.11 470.556C1512.64 458.763 1516.58 446.263 1520.31 433.898C1524.79 419.073 1528.52 404.012 1530.83 388.783C1535.38 358.594 1535.99 327.967 1534.67 297.576C1534.43 292.657 1534.33 287.704 1534.23 282.717C1527.03 281.437 1524.69 278.236 1525.33 270.756C1525.61 267.454 1528.59 258.054 1530.05 254.988C1530.73 253.64 1538.67 242.05 1539.35 241.612C1541.62 240.264 1554.86 239.152 1557.88 239.388C1566.12 239.994 1582.07 247.373 1573.01 257.616C1576.98 259.368 1579.36 259.435 1583.33 257.616C1583.8 256.908 1580.04 254.112 1579.32 253.303C1570.16 242.791 1573.89 229.887 1579.02 218.498C1580.04 216.207 1581.83 213.141 1583.33 211.221C1583.53 216.072 1584.82 223.215 1589.88 225.068C1590.52 221.194 1591.4 217.252 1591.74 213.31C1591.95 211.018 1591.54 208.492 1591.74 206.133C1591.78 205.324 1592.83 195.857 1594.53 197.036C1595.58 198.653 1596.02 201.012 1596.26 202.966C1597.78 213.343 1596.05 223.687 1596.43 233.896C1596.43 234.503 1596.05 235.682 1596.83 235.581C1599.17 231.201 1601.14 226.652 1602.36 221.834C1605.89 208.121 1603.48 201.888 1598.77 189.421C1598.53 188.781 1597.55 185.816 1597.1 185.816L1591.27 194.206C1581.43 194.408 1582.61 189.051 1580.24 182.009C1576.37 170.317 1566.02 164.96 1554.31 167.352C1551.57 167.959 1545.49 170.89 1543.35 170.52C1540.88 170.115 1535.89 161.187 1533.72 160.243C1532.66 159.704 1531.92 160.58 1530.97 160.479C1533.92 155.526 1533.55 149.293 1536.3 144.172C1536.87 143.363 1537.31 144.172 1537.69 144.677C1540.91 148.181 1537.01 153.201 1537.69 157.143C1547.93 151.449 1547.56 134.67 1558.73 130.796C1561.17 129.953 1563.48 129.616 1565.99 130.324C1566.33 128.774 1566.9 127.359 1566.97 125.809C1567.14 121.766 1563.34 107.311 1561.1 104.043C1560.18 102.797 1559.1 101.449 1557.5 101.718C1551.09 102.561 1544.71 109.838 1537.11 104.582C1532.12 101.112 1539.99 93.5648 1532.33 91.5432C1531.92 90.5661 1533.17 89.4205 1533.14 88.9488C1533.11 88.5108 1531.92 88.0728 1531.82 87.0283C1531.71 85.8154 1534.67 80.7614 1534.19 80.0876C1524.72 77.4595 1531.38 75.2021 1534.12 71.1589C1535.11 69.6427 1537.86 62.9041 1536.94 61.4553L1532.8 59.7033L1537.01 60.4782C1536.26 54.3798 1534.19 49.4943 1534.73 43.059C1534.8 42.3851 1536.19 34.5347 1537.01 35.6128C1536.53 40.0603 1538.09 43.4296 1540.77 46.7989C1546.65 54.2787 1554.25 61.7249 1560.66 69.1036C1561.27 69.8112 1564.97 73.3153 1564.97 73.6185C1564.97 73.8544 1563.48 75.1347 1563.61 77.4595C1563.82 80.1886 1566.02 81.0647 1566.02 81.2668C1566.02 82.1428 1564.56 82.9178 1564.56 84.6698C1564.56 86.2534 1565.85 86.9272 1565.92 87.6011C1566.02 88.1402 1564.94 88.9825 1565 90.3302C1565.11 91.8801 1565.92 93.868 1565.89 96.0917C1565.85 96.5634 1565.21 97.0688 1565.21 97.5405C1565.21 99.2589 1567.65 100.472 1568.84 98.9219C1567.79 96.7993 1569.55 95.6874 1569.69 94.5755C1569.75 93.8006 1568.87 93.1268 1568.94 92.7224C1568.97 92.3518 1569.96 91.9138 1570.16 91.2399C1570.53 89.9933 1569.62 88.9151 1569.82 88.1065C1570.03 87.3989 1571.08 87.1631 1571.21 85.6132C1571.38 83.6927 1570.2 82.6482 1570.2 81.8059C1570.2 81.5364 1572.33 80.8962 1572.16 79.6496C1572.91 79.0431 1586.82 88.376 1587.03 89.4879C1584.04 94.8114 1580.58 101.415 1580.04 107.581C1579.66 111.927 1580.21 122.44 1581.9 126.281C1585.06 133.491 1591.78 132.379 1598.19 133.996C1611.05 137.197 1618.18 140.027 1620.99 154.212C1622.76 163.107 1624.52 175.135 1624.96 184.165C1625.47 194.913 1623.03 205.628 1628.43 215.5C1631.58 221.227 1637.01 225.136 1642.68 227.932C1639.42 219.711 1632.67 213.377 1633.89 203.808C1634.09 201.989 1637.08 191.679 1637.86 190.163C1638.88 188.276 1642.95 185.446 1644.58 183.525C1653.13 173.35 1650.21 159.502 1651.13 147.069C1655.88 148.215 1656.56 155.021 1656.76 159.266C1657.1 165.162 1655.06 170.991 1657.44 176.685C1659.07 180.627 1665.65 183.323 1668.91 185.816C1668.74 180.526 1660.29 176.652 1659.58 172.204C1657.85 160.951 1669.25 157.851 1663.41 145.317C1656.93 137.13 1651.47 128.201 1645.26 119.845C1635.69 106.941 1617.06 87.3652 1615.6 70.7883C1614.72 60.9836 1615.63 50.6062 1614.11 40.6331C1611.93 26.3136 1601.99 1.34706 1585.43 0.167806C1570.91 -0.910369 1568.97 3.40233 1557.03 7.51288C1551.67 9.3323 1546.1 10.2083 1540.64 11.3202C1528.66 13.7798 1522.45 32.0077 1522.55 43.0253C1522.62 51.2127 1526.39 54.245 1521.2 62.2303C1518.58 66.3408 1514.14 69.9123 1512.88 74.7641C1510.81 83.221 1516.99 92.7224 1515.73 101.146C1515.39 103.639 1513.97 105.863 1513.66 108.289C1521.2 101.078 1519.43 88.9488 1522.04 79.6159C1523.16 78.4703 1523.67 82.783 1523.77 83.3558C1525.23 91.4084 1526.15 98.147 1523.2 105.93C1520.24 113.612 1515.9 121.193 1514.68 129.717C1513.76 135.849 1519.91 144.947 1524.59 148.484C1526.96 144.778 1523.43 140.432 1522.35 136.894C1521.57 134.333 1520.41 130.122 1523.74 128.942C1526.66 128.707 1528.08 135.614 1528.15 137.804C1528.32 144.744 1527.03 150.775 1527.71 158.255C1527.85 159.367 1528.35 160.546 1528.63 161.625C1516.27 166.813 1511.49 183.761 1522.82 192.959C1525.2 194.846 1528.08 195.722 1530.42 197.609C1530.19 205.324 1529.1 215.399 1532.09 222.676C1533.17 225.271 1535.01 227.023 1535.65 230.021C1536.43 233.391 1536.53 238.04 1534.36 240.769C1525.54 240.331 1503.48 245.015 1501.55 255.561C1500.05 263.782 1505.28 268.836 1513.15 265.938L1522.96 261.693C1519.29 269.408 1569.92 93.8343 1515.19 286.188C1460.45 478.541 781.163 424.834 584.761 404.007C388.358 383.181 223.535 342.163 149.278 314.728C149.278 314.728 43.7771 275.775 -5.3125 242.713V514.424H1460.45V514.693H1573.79V514.424H1709.32V343.398L1646.68 306.437ZM1522.65 257.043C1519.4 259.503 1506.77 267.05 1506.3 258.728C1505.79 249.866 1525.98 243.667 1532.77 243.229C1530.66 248.923 1527.44 253.472 1522.65 257.043Z" fill="#F7F8FA"/>
<path d="M1553.17 239.279C1558.98 237.287 1575.46 239.417 1579.14 244.466C1582.4 248.931 1578.86 252.159 1573.99 251.232C1569.11 250.305 1559.04 245.908 1555.3 242.199C1554.85 241.752 1552.69 239.794 1553.17 239.279Z" fill="white"/>
<path d="M1542.3 273.904C1540.24 274.076 1538.93 273.698 1538.07 271.672C1535.67 265.799 1540.31 253.296 1543.33 247.904L1545.6 244.641C1543.43 254.224 1542.26 264.047 1542.3 273.904Z" fill="white"/>
<path d="M1546.08 271.942L1545.16 271.701L1546.6 249.753L1547.53 246.078C1549.24 255.008 1551.1 263.698 1546.12 271.907L1546.08 271.942Z" fill="white"/>
<path d="M1562.14 253.908C1559.26 254.389 1557.61 256.759 1555.34 258.27L1551.73 251.469C1555.24 250.336 1561.35 248.756 1562.14 253.908Z" fill="white"/>
<path d="M1550.35 242.711C1550.73 242.264 1556.78 245.768 1556.5 246.833L1551.56 249.993C1550.32 249.718 1550.25 243.776 1550.35 242.677V242.711Z" fill="white"/>
<path d="M1563.58 257.348C1564.26 259.992 1561.31 260.988 1559.97 263.152C1552.72 259.992 1559.25 257.932 1563.58 257.348Z" fill="white"/>
</svg>
