<svg preserveAspectRatio="none" width="100%" height="100%" overflow="visible" style="display: block;" viewBox="0 0 86.3535 87.1902" fill="none" xmlns="http://www.w3.org/2000/svg">
<path id="Vector" d="M86.311 28.4998C86.1864 30.2425 85.9192 31.9709 85.5125 33.6666C85.1391 35.2582 84.6915 36.7004 84.2822 37.9349C83.2892 40.8501 82.1218 43.698 80.7867 46.4622C79.6238 48.9219 78.2809 51.5519 76.6772 54.5064C75.3433 56.9684 73.906 59.5191 72.2887 62.3032L67.7901 69.9483C66.3685 72.38 64.866 74.9751 63.4916 77.5841C62.7448 79.0123 62.142 80.2118 61.6202 81.4184C61.3468 82.0331 61.105 82.6626 60.8959 83.304C60.7074 83.8531 60.5777 84.422 60.509 85.0006L60.3741 86.4964C60.3703 86.5419 60.3548 86.5855 60.3291 86.6225C60.2797 86.7858 60.1812 86.9285 60.0481 87.0297C59.9149 87.1309 59.7541 87.1853 59.589 87.1849H59.5485C59.5136 87.1919 59.4777 87.1919 59.4428 87.1849L58.1247 86.8512C56.4715 86.4311 54.9554 85.9574 53.4169 85.4696C51.8424 84.9609 50.2881 84.4101 48.8418 83.8897C47.8993 83.5373 46.9591 83.1896 46.0211 82.8512C44.2059 82.1885 41.9453 81.3647 39.8265 80.4989C36.3265 79.0754 33.5283 77.8222 31.0001 76.555C29.3379 75.7078 27.9815 74.9611 26.7264 74.2003C25.5185 73.4722 24.4951 72.8001 23.5773 72.1163C23.2639 71.8845 22.964 71.6511 22.6776 71.4162L22.6281 71.3765C22.572 71.3317 22.5349 71.2658 22.5249 71.1931C22.5148 71.1203 22.5324 71.0463 22.5741 70.9868L23.1612 70.1443C23.2027 70.0857 23.2643 70.0457 23.3333 70.0327C23.4024 70.0197 23.4736 70.0346 23.5323 70.0743L23.5841 70.107L24.0092 70.3894C26.1955 71.8269 28.7193 73.1385 31.8998 74.499C34.4416 75.6028 37.2532 76.6763 40.7509 77.8735L40.7959 77.8875C43.5783 78.821 46.7341 79.8665 49.7932 80.6692C51.3475 81.094 52.913 81.4907 54.3841 81.8594C55.2838 82.0928 56.0216 82.2585 56.6717 82.4055C56.7405 82.4213 56.8124 82.409 56.8727 82.3712C56.933 82.3334 56.977 82.273 56.9956 82.2025L57.0225 82.0998C57.2392 81.3154 57.4937 80.5427 57.7851 79.7848C58.2777 78.4779 58.8603 77.1267 59.6183 75.5328C60.9274 72.8164 62.3175 70.205 63.757 67.5446L67.9993 59.7455C69.5018 56.9941 70.8514 54.5087 72.156 51.9743C75.4153 45.6571 77.5544 40.7727 79.111 36.1193C80.1142 33.0458 80.6652 30.4415 80.7957 28.1591C80.8313 27.5374 80.8313 26.9139 80.7957 26.2922C80.7327 25.4964 80.6652 24.8616 80.5708 24.3039C80.3791 22.9793 80.085 21.6729 79.6913 20.3973C78.9168 17.8616 77.7367 15.4791 76.2003 13.3496C74.6759 11.2556 72.7718 9.49097 70.595 8.15483C68.4244 6.83817 66.0096 6.0134 63.5096 5.7348C60.9646 5.47032 58.3944 5.70223 55.9316 6.41857C54.6718 6.783 53.442 7.25123 52.254 7.81878C51.7389 8.05214 51.2081 8.34386 50.7379 8.59356L50.4658 8.73591H50.4523C50.3263 8.81292 50.1801 8.89693 50.0339 8.98328L49.9192 9.05096C49.5143 9.28433 49.1319 9.51769 48.772 9.75106C47.6513 10.4749 46.5891 11.2921 45.596 12.1944C44.615 13.0754 43.7117 14.0454 42.8968 15.0929C41.2503 17.1822 39.9636 19.5506 39.0932 22.0939C38.6563 23.3709 38.3245 24.684 38.1012 26.0191C37.9865 26.6842 37.901 27.3587 37.847 28.0284C37.8223 28.3645 37.8043 28.6912 37.7908 29.0273C37.7773 29.3633 37.7908 29.7064 37.7908 29.9327L37.9505 33.7133V33.7273C37.9551 33.7676 37.9551 33.8083 37.9505 33.8486C37.9499 34.0026 37.9039 34.1527 37.8186 34.2787C37.7333 34.4048 37.6128 34.5007 37.4734 34.5535C37.334 34.6064 37.1824 34.6137 37.0389 34.5745C36.8953 34.5352 36.7668 34.4513 36.6707 34.334L34.0187 31.823C33.8995 31.711 33.706 31.5406 33.5238 31.3913C33.3417 31.2419 33.1437 31.0832 32.9503 30.9245C32.5746 30.6352 32.1697 30.3435 31.7491 30.0587C30.9193 29.503 30.0611 28.9942 29.1782 28.5348C27.4297 27.6174 25.5722 26.9434 23.6538 26.5302C21.751 26.124 19.7976 26.0381 17.8685 26.2758C15.9228 26.5257 14.0259 27.0861 12.2452 27.9374C11.342 28.3633 10.47 28.8571 9.63601 29.4146C8.79692 29.9601 8.00449 30.5792 7.26747 31.2653C5.80658 32.6169 4.60665 34.2444 3.73153 36.061C2.85361 37.9208 2.30576 39.9295 2.11425 41.9908C1.89724 44.064 1.9967 46.1597 2.40893 48.2008L2.42241 48.2731L2.43592 48.3361C2.45104 48.4072 2.43913 48.4816 2.40267 48.5437C2.36621 48.6059 2.30801 48.6511 2.24023 48.6698L1.2685 48.9382C1.20082 48.9573 1.12865 48.9485 1.06705 48.9137C1.00545 48.879 0.959172 48.8208 0.93786 48.7515L0.919876 48.6932C0.852396 48.4785 0.789395 48.2591 0.730912 48.0397C0.199574 46.0269 -0.0444425 43.9441 0.006636 41.8578C0.0503126 39.4968 0.513944 37.1644 1.37422 34.9781C2.2572 32.7511 3.55686 30.7277 5.19807 29.0249C6.01327 28.1711 6.89669 27.3904 7.83881 26.6912C8.76171 25.9953 9.73306 25.3712 10.7449 24.8243C12.8062 23.6754 15.0359 22.8869 17.3444 22.4906C19.6674 22.091 22.0374 22.0847 24.3623 22.472C26.665 22.8524 28.9085 23.5493 31.0339 24.5443C31.7087 24.8546 32.3834 25.2047 33.0897 25.6037C33.1284 25.6267 33.172 25.6395 33.2166 25.6409C33.2612 25.6423 33.3055 25.6323 33.3455 25.6118C33.3855 25.5912 33.42 25.5608 33.446 25.5232C33.472 25.4856 33.4887 25.4419 33.4946 25.3961C33.4946 25.3564 33.4946 25.319 33.5104 25.2794C33.7314 23.6707 34.0836 22.0843 34.563 20.5373C36.0139 15.8177 38.6543 11.5862 42.2107 8.28085C43.3725 7.18088 44.6182 6.18035 45.9356 5.28907C46.4102 4.94602 46.9456 4.62397 47.3752 4.3556L47.5844 4.22958L47.9128 4.02655L48.095 3.9262C48.7405 3.56681 49.3704 3.2261 50.0114 2.89705C51.4421 2.18289 52.9253 1.58825 54.4471 1.11878C57.5631 0.135916 60.8344 -0.204205 64.0764 0.117633C67.3554 0.458327 70.5273 1.51787 73.3819 3.2261C78.8568 6.49325 83.1012 12.1104 85.0289 18.6634C85.499 20.2289 85.8473 21.8311 86.0704 23.4544C86.1716 24.1545 86.2503 24.9293 86.3178 25.8908C86.3676 26.7598 86.3653 27.6311 86.311 28.4998Z" fill="var(--fill-0, #F47BB4)"/>
</svg>
