<svg width="308" height="105" viewBox="0 0 308 105" fill="none" xmlns="http://www.w3.org/2000/svg">
<path d="M307.334 28.4998C307.21 30.2424 306.943 31.9709 306.536 33.6666C306.163 35.2582 305.715 36.7004 305.306 37.9349C304.313 40.8501 303.145 43.698 301.81 46.4622C300.647 48.9219 299.304 51.5519 297.701 54.5064C296.367 56.9684 294.929 59.5191 293.312 62.3032L288.814 69.9483C287.392 72.38 285.889 74.9751 284.515 77.5841C283.768 79.0123 283.165 80.2118 282.644 81.4184C282.37 82.0331 282.128 82.6626 281.919 83.304C281.731 83.8531 281.601 84.422 281.532 85.0006L281.397 86.4964C281.394 86.5419 281.378 86.5855 281.353 86.6225C281.303 86.7858 281.205 86.9285 281.071 87.0297C280.938 87.1309 280.778 87.1853 280.612 87.1849H280.572C280.537 87.1919 280.501 87.1919 280.466 87.1849L279.148 86.8512C277.495 86.4311 275.979 85.9574 274.44 85.4696C272.866 84.9609 271.312 84.4101 269.865 83.8897C268.923 83.5373 267.983 83.1896 267.045 82.8512C265.229 82.1885 262.969 81.3647 260.85 80.4989C257.35 79.0753 254.552 77.8222 252.024 76.555C250.361 75.7078 249.005 74.9611 247.75 74.2003C246.542 73.4722 245.518 72.8001 244.601 72.1163C244.287 71.8845 243.987 71.6511 243.701 71.4162L243.652 71.3765C243.595 71.3317 243.558 71.2658 243.548 71.193C243.538 71.1203 243.556 71.0463 243.598 70.9868L244.185 70.1443C244.226 70.0857 244.288 70.0457 244.357 70.0327C244.426 70.0197 244.497 70.0346 244.556 70.0743L244.608 70.107L245.033 70.3894C247.219 71.8269 249.743 73.1385 252.923 74.499C255.465 75.6028 258.277 76.6763 261.774 77.8735L261.819 77.8875C264.602 78.821 267.758 79.8665 270.817 80.6693C272.371 81.094 273.936 81.4907 275.408 81.8594C276.307 82.0928 277.045 82.2585 277.695 82.4055C277.764 82.4213 277.836 82.409 277.896 82.3712C277.956 82.3334 278 82.273 278.019 82.2025L278.046 82.0998C278.263 81.3154 278.517 80.5427 278.809 79.7848C279.301 78.4779 279.884 77.1267 280.642 75.5328C281.951 72.8164 283.341 70.205 284.78 67.5446L289.023 59.7455C290.525 56.9941 291.875 54.5087 293.179 51.9743C296.439 45.6571 298.578 40.7727 300.134 36.1193C301.138 33.0458 301.689 30.4415 301.819 28.1591C301.855 27.5374 301.855 26.9139 301.819 26.2922C301.756 25.4964 301.689 24.8616 301.594 24.3039C301.403 22.9793 301.108 21.6729 300.715 20.3973C299.94 17.8616 298.76 15.4791 297.224 13.3496C295.699 11.2556 293.795 9.49096 291.618 8.15483C289.448 6.83817 287.033 6.0134 284.533 5.7348C281.988 5.47032 279.418 5.70223 276.955 6.41857C275.695 6.783 274.465 7.25123 273.277 7.81878C272.762 8.05214 272.231 8.34386 271.761 8.59356L271.489 8.73591H271.476C271.35 8.81292 271.204 8.89693 271.057 8.98328L270.943 9.05096C270.538 9.28433 270.155 9.51769 269.795 9.75106C268.675 10.4749 267.613 11.2921 266.619 12.1944C265.638 13.0754 264.735 14.0454 263.92 15.0929C262.274 17.1822 260.987 19.5506 260.117 22.0939C259.68 23.3709 259.348 24.684 259.125 26.0191C259.01 26.6842 258.924 27.3587 258.87 28.0284C258.846 28.3645 258.828 28.6912 258.814 29.0273C258.801 29.3633 258.814 29.7064 258.814 29.9327L258.974 33.7133V33.7273C258.979 33.7676 258.979 33.8083 258.974 33.8486C258.973 34.0026 258.927 34.1527 258.842 34.2787C258.757 34.4048 258.636 34.5007 258.497 34.5535C258.357 34.6064 258.206 34.6137 258.062 34.5745C257.919 34.5352 257.79 34.4513 257.694 34.334L255.042 31.823C254.923 31.711 254.729 31.5406 254.547 31.3913C254.365 31.2419 254.167 31.0832 253.974 30.9245C253.598 30.6352 253.193 30.3435 252.773 30.0587C251.943 29.503 251.084 28.9942 250.202 28.5348C248.453 27.6174 246.596 26.9434 244.677 26.5302C242.774 26.124 240.821 26.0381 238.892 26.2758C236.946 26.5257 235.049 27.0861 233.269 27.9374C232.365 28.3633 231.493 28.8571 230.659 29.4146C229.82 29.9601 229.028 30.5792 228.291 31.2653C226.83 32.6169 225.63 34.2444 224.755 36.061C223.877 37.9208 223.329 39.9295 223.138 41.9908C222.921 44.064 223.02 46.1597 223.432 48.2008L223.446 48.2731L223.459 48.3361C223.474 48.4072 223.463 48.4816 223.426 48.5437C223.39 48.6059 223.331 48.6511 223.264 48.6698L222.292 48.9382C222.224 48.9573 222.152 48.9485 222.09 48.9137C222.029 48.879 221.983 48.8208 221.961 48.7515L221.943 48.6932C221.876 48.4785 221.813 48.2591 221.754 48.0397C221.223 46.0269 220.979 43.9441 221.03 41.8578C221.074 39.4968 221.537 37.1644 222.398 34.9781C223.281 32.7511 224.58 30.7277 226.222 29.0249C227.037 28.1711 227.92 27.3904 228.862 26.6912C229.785 25.9953 230.756 25.3712 231.768 24.8243C233.83 23.6754 236.059 22.8869 238.368 22.4906C240.691 22.091 243.061 22.0847 245.386 22.472C247.688 22.8524 249.932 23.5493 252.057 24.5443C252.732 24.8546 253.407 25.2047 254.113 25.6037C254.152 25.6267 254.195 25.6395 254.24 25.6409C254.285 25.6423 254.329 25.6323 254.369 25.6117C254.409 25.5912 254.443 25.5608 254.469 25.5232C254.495 25.4856 254.512 25.4419 254.518 25.3961C254.518 25.3564 254.518 25.319 254.534 25.2794C254.755 23.6707 255.107 22.0843 255.586 20.5373C257.037 15.8177 259.678 11.5862 263.234 8.28085C264.396 7.18088 265.642 6.18035 266.959 5.28907C267.434 4.94602 267.969 4.62397 268.399 4.3556L268.608 4.22958L268.936 4.02655L269.118 3.9262C269.764 3.56681 270.394 3.2261 271.035 2.89705C272.465 2.18289 273.949 1.58825 275.471 1.11878C278.587 0.135916 281.858 -0.204205 285.1 0.117633C288.379 0.458327 291.551 1.51787 294.405 3.2261C299.88 6.49325 304.125 12.1104 306.052 18.6634C306.522 20.2289 306.871 21.8311 307.094 23.4544C307.195 24.1545 307.274 24.9293 307.341 25.8908C307.391 26.7598 307.389 27.6311 307.334 28.4998Z" fill="#F47BB4"/>
<path d="M243.534 66.7215C243.393 66.4551 243.185 66.2333 242.932 66.0798C242.679 65.9263 242.39 65.8469 242.097 65.8499C241.726 65.8504 241.36 65.9432 241.031 66.1205C240.701 66.2977 240.418 66.5543 240.203 66.8687C237.951 69.6823 236.197 71.6477 234.94 72.7647C233.684 73.8817 232.608 74.4402 231.713 74.4402C231.42 74.4552 231.128 74.3927 230.864 74.2587C230.6 74.1246 230.373 73.9234 230.204 73.6737C229.855 73.1643 229.68 72.4484 229.68 71.5261C229.693 69.4265 229.88 67.3318 230.241 65.2656C230.614 63.0331 231.152 60.3644 231.853 57.2595C232.604 54.153 233.025 51.9929 233.116 50.7793C233.175 50.4356 233.144 50.0817 233.025 49.755C232.906 49.4284 232.704 49.1412 232.441 48.9238C231.903 48.4564 231.167 48.2228 230.232 48.2228C228.595 48.2228 227.519 48.5865 227.004 49.3141C225.48 48.8377 223.92 48.493 222.341 48.2835C221.778 48.2087 221.215 48.1573 220.661 48.1223C220.176 48.0919 219.697 48.0779 219.217 48.0779C215.614 48.0779 212.808 49.0601 210.799 51.0247C208.79 52.9892 207.785 55.7678 207.782 59.3603C207.782 62.4668 208.612 64.9424 210.272 66.787C211.933 68.6315 214.166 69.553 216.972 69.5515H217.873C216.611 71.1282 215.12 72.4913 213.454 73.592C211.953 74.5392 210.479 75.0128 209.034 75.0128C208.499 75.0225 207.972 74.8864 207.504 74.6182C207.036 74.35 206.644 73.9591 206.367 73.4845C205.941 72.806 205.653 72.0441 205.521 71.2457C205.428 70.7113 205.382 70.1692 205.385 69.6263C205.401 69.0414 205.447 68.4578 205.525 67.8783C205.543 67.7871 205.559 67.6983 205.575 67.6189C205.624 67.3686 205.655 67.1147 205.667 66.8594C205.667 65.4573 204.825 64.7562 203.14 64.7562C201.224 64.7562 199.716 65.4845 198.616 66.9412C197.589 68.3012 197.042 70.1263 196.974 72.4165C196.889 72.5006 196.805 72.5777 196.722 72.6502C195.435 73.842 194.324 74.4371 193.389 74.4356C193.102 74.4421 192.818 74.3757 192.561 74.2421C192.304 74.1085 192.083 73.9118 191.916 73.6691C191.542 73.1596 191.356 72.4438 191.356 71.5215C191.356 70.0664 192.01 66.2323 193.319 60.0193C194.487 54.5869 195.072 51.263 195.074 50.0479C195.074 49.3188 194.863 48.821 194.443 48.5546C194.022 48.2882 193.272 48.155 192.191 48.155C190.648 48.155 189.49 48.4705 188.718 49.1014C187.947 49.7324 187.374 50.7754 187 52.2305C185.876 56.5522 184.718 60.1923 183.528 63.1508C182.337 66.1093 181.211 68.3176 180.15 69.7758C179.099 71.2309 178.222 71.9585 177.519 71.9585C177.295 71.9756 177.07 71.9268 176.871 71.8177C176.672 71.7086 176.506 71.5436 176.393 71.3415C176.159 70.9287 176.042 70.2128 176.042 69.1939C176.042 67.4958 176.51 64.098 177.445 59.0005C177.727 57.5438 178.103 55.9181 178.571 54.1234C179.086 51.8909 179.343 50.5807 179.343 50.1928C179.343 49.5135 179.145 49.0041 178.747 48.6644C178.349 48.3248 177.636 48.155 176.607 48.155C174.783 48.155 173.45 48.4705 172.608 49.1014C171.766 49.7324 171.111 50.7754 170.644 52.2305C169.641 55.3779 168.878 58.6027 168.365 61.8748C167.942 64.7235 167.711 67.5995 167.676 70.4816C165.463 72.1688 163.027 73.8739 160.368 75.597C160.413 74.5781 160.355 73.8989 160.193 73.5592C160.133 73.4076 160.031 73.278 159.9 73.1871C159.769 73.0963 159.614 73.0485 159.456 73.0498C159.22 73.0496 158.985 73.0739 158.754 73.1222C158.546 73.168 158.335 73.1922 158.123 73.1947C157.917 73.2074 157.711 73.1636 157.527 73.0676C157.342 72.9716 157.185 72.8268 157.071 72.6478C156.846 72.2856 156.72 71.643 156.72 70.7199C156.72 69.7968 156.929 68.2685 157.351 66.1326C157.772 63.9967 158.251 61.8374 158.754 59.6548C159.922 54.4139 160.506 51.2109 160.508 50.0455C160.508 49.3164 160.298 48.8187 159.877 48.5523C159.456 48.2858 158.706 48.1527 157.625 48.1527C156.124 48.1527 154.978 48.4557 154.187 49.0617C153.395 49.6677 152.811 50.7232 152.435 52.2282C150.933 58.0049 149.296 62.7371 147.523 66.4247C145.75 70.1123 144.23 71.9561 142.963 71.9561C142.734 71.9717 142.506 71.9182 142.306 71.8021C142.106 71.6859 141.943 71.5122 141.837 71.3018C141.603 70.8656 141.485 70.1645 141.485 69.1986C141.485 67.5488 141.953 64.1509 142.888 59.0051C143.171 57.5485 143.546 55.9228 144.014 54.1281C144.531 51.8956 144.788 50.5853 144.787 50.1974C144.787 49.4714 144.577 48.9495 144.156 48.6317C143.736 48.3139 143.034 48.1581 142.051 48.1643C140.273 48.1643 138.952 48.4674 138.087 49.0734C137.222 49.6794 136.556 50.7349 136.087 52.2399C135.243 54.9096 134.559 57.6311 134.038 60.3886C132.106 60.8653 130.141 61.1834 128.16 61.3397C127.787 57.6007 126.51 54.4583 124.332 51.9127C122.154 49.3671 119.294 48.0919 115.752 48.0872C112.934 48.0624 110.173 48.9111 107.823 50.5246C105.439 52.1511 103.568 54.41 102.211 57.3015C100.854 60.193 100.178 63.481 100.184 67.1655C100.18 68.4207 100.296 69.6732 100.531 70.9045C98.6827 73.5031 97.0913 74.8025 95.7567 74.8025C94.7268 74.8025 94.0257 74.3172 93.6533 73.3466C93.281 72.376 93.0941 70.5065 93.0926 67.7381C93.0926 65.9901 93.1857 63.3206 93.3718 59.7296C93.4191 58.8088 93.4664 57.7993 93.5137 56.708C93.561 55.6167 93.5835 54.5136 93.5835 53.3966C93.5835 51.3565 93.2772 49.9637 92.6715 49.2089C92.0657 48.4541 90.9172 48.0872 89.2327 48.0872C88.1699 48.0724 87.1206 48.3351 86.1813 48.8514C85.173 49.4384 84.2608 50.1877 83.4789 51.0714C82.497 52.1884 81.1638 54.5425 79.4794 58.1335C77.7949 61.7245 76.5555 64.9026 75.7613 67.6679H75.6217C75.2929 63.9804 75.1293 58.618 75.1308 51.5809C75.1308 50.3672 74.6984 49.4932 73.8336 48.9589C72.9689 48.4245 71.8812 48.1581 70.5705 48.1597C69.0272 48.1597 67.7998 48.511 66.8885 49.2136C65.9772 49.9162 65.2881 51.0208 64.8212 52.5273C63.4175 57.2353 61.9207 61.846 60.3308 66.3593C59.1597 69.7073 58.2477 71.879 57.5946 72.8745C56.9415 73.87 56.2869 74.367 55.6309 74.3655C55.1152 74.3655 54.7886 73.9238 54.6513 73.0334C54.5978 72.6551 54.5729 72.273 54.5769 71.8907C54.5769 71.4958 54.6085 70.991 54.6693 70.3717C54.7594 69.4681 54.9162 68.3246 55.1399 66.9412C55.1914 66.752 55.215 66.5558 55.2098 66.3593C55.2098 65.0475 54.2744 64.3924 52.4038 64.394C50.437 64.394 48.917 65.2064 47.8435 66.8314C47.1286 67.931 46.648 69.1762 46.4338 70.4839C44.38 71.1523 42.128 71.7552 39.6778 72.2927C35.6324 73.2068 31.5064 73.6822 27.3663 73.7111C21.4736 73.7111 17.1708 72.947 14.4579 71.4187C11.745 69.8903 10.3863 67.6212 10.3818 64.6113C10.3956 62.7733 11.0003 60.9928 12.1001 59.552C13.2471 57.9753 15.0945 56.6768 17.6422 55.6564C20.1899 54.6359 23.4058 54.0782 27.2897 53.9832C30.0957 53.9333 31.4986 52.3076 31.4986 49.1061C31.4986 48.0872 31.2877 47.3589 30.8658 46.9211C30.444 46.4833 29.7196 46.2411 28.6927 46.1943C24.6241 46.0479 21.689 45.2347 19.8874 43.7546C18.0858 42.2746 17.185 40.3942 17.185 38.1134C17.185 35.1534 18.3778 32.7993 20.7634 31.0513C23.149 29.3034 26.3288 28.4301 30.3028 28.4317C33.2499 28.4317 35.3518 28.977 36.6084 30.0675C37.219 30.5777 37.7077 31.2275 38.0362 31.9661C38.3647 32.7047 38.5243 33.5121 38.5023 34.3253C38.4504 35.4223 38.333 36.515 38.151 37.597C37.9284 38.4761 37.8104 39.3802 37.7997 40.289C37.7997 41.5042 38.175 42.4148 38.9257 43.0209C39.6763 43.6269 40.7055 43.9299 42.0131 43.9299C43.8823 43.9299 45.3198 43.0442 46.3257 41.2729C47.3316 39.5015 47.8345 37.1841 47.8345 34.3206C47.8345 30.1968 46.385 26.8356 43.4859 24.237C40.5869 21.6384 36.2331 20.3406 30.4244 20.3438C26.1232 20.3438 22.1717 21.0713 18.57 22.5264C14.9683 23.9815 12.1038 26.0567 9.97645 28.7519C7.88497 31.3555 6.75954 34.6493 6.80341 38.0386C6.78529 40.5559 7.56202 43.01 9.01485 45.0259C10.4877 47.112 12.6038 48.5678 15.3632 49.3935C10.3127 50.7037 6.48888 52.8272 3.8916 55.7639C1.29431 58.7006 -0.00282984 62.2565 0.000172799 66.4317C-0.015367 69.4477 1.01768 72.3682 2.90974 74.6576C4.85094 77.0864 7.8093 78.9909 11.7848 80.3712C15.7603 81.7516 20.6974 82.4409 26.5961 82.4394C30.9475 82.431 35.29 82.0291 39.5742 81.2382C42.3796 80.7604 45.1402 80.0333 47.8255 79.0649C47.9539 79.2729 48.0912 79.4762 48.2376 79.6725C49.5708 81.4688 51.4767 82.3669 53.9554 82.3669C56.901 82.3669 59.3331 81.4088 61.2518 79.4926C63.1705 77.5763 64.6906 75.1008 65.8121 72.066C66.9336 69.0327 68.0791 65.162 69.2486 60.454H69.3837C69.2441 61.9107 69.1743 63.4398 69.1743 65.0413C69.1723 67.6321 69.313 70.2209 69.5954 72.7951C69.8747 75.3423 70.2252 77.3442 70.6471 78.8009C71.0209 80.0628 71.442 80.9843 71.9104 81.5654C72.3789 82.1465 73.1295 82.4378 74.1624 82.4394C75.0604 82.466 75.9436 82.1986 76.6869 81.6752C77.3895 81.1658 77.9976 80.1835 78.511 78.7284L79.7046 75.4568C80.9657 71.8658 82.1112 68.7593 83.1411 66.1373C84.0773 63.7056 85.1751 61.3443 86.4267 59.0706H86.5686C85.8179 63.8752 85.4426 67.8791 85.4426 71.0821C85.4426 74.7697 85.9808 77.5841 87.0573 79.5253C88.1337 81.4665 89.9113 82.4378 92.39 82.4394C94.8197 82.4413 97.1794 81.5952 99.0896 80.0371C100.387 79.0036 101.613 77.8768 102.758 76.6649C103.677 78.1151 104.862 79.3627 106.246 80.3362C108.233 81.7383 110.63 82.4394 113.437 82.4394C116.756 82.4394 119.726 81.2141 122.346 78.7635C124.966 76.3129 126.719 73.049 127.606 68.9719C129.472 68.8981 131.33 68.6676 133.16 68.2825C133.106 69.451 133.079 70.6514 133.079 71.8837C133.079 74.9435 133.754 77.4673 135.106 79.4552C136.457 81.4431 138.166 82.4378 140.233 82.4394C142.152 82.4394 143.894 81.5171 145.46 79.6725C147.026 77.8279 148.184 75.329 148.933 72.1758C148.933 74.4067 149.319 76.2147 150.09 77.5997C150.862 78.9847 151.926 79.7971 153.281 80.0371V80.1843C149.307 82.6598 146.23 84.8674 144.048 86.807C141.867 88.7466 140.37 90.5063 139.558 92.086C138.752 93.6151 138.33 95.3301 138.33 97.0729C138.33 99.1107 138.974 100.809 140.26 102.167C141.547 103.526 143.172 104.206 145.136 104.207C148.081 104.207 150.701 103.039 152.993 100.702C155.286 98.3652 157.016 95.0157 158.184 90.6535C158.745 88.5176 159.33 85.9946 159.938 83.0844C163.658 80.7849 166.564 78.9224 168.653 77.4969C168.923 78.1675 169.259 78.8073 169.655 79.4061C170.987 81.4236 172.705 82.4308 174.81 82.4277C176.634 82.4277 178.341 81.542 179.931 79.7707C181.521 77.9993 182.714 75.4638 183.51 72.1641C183.51 75.4139 184.035 77.9378 185.086 79.7356C186.137 81.5334 187.788 82.4308 190.04 82.4277C192.851 82.4671 195.604 81.6026 197.922 79.9529C198.296 79.6865 198.668 79.4084 199.033 79.114C199.235 79.3591 199.449 79.5931 199.674 79.8151C201.476 81.5599 203.826 82.4331 206.725 82.4347C213.46 82.4347 219.002 78.1886 223.352 69.6964H223.491C223.224 71.2092 223.083 72.7433 223.07 74.2813C223.07 76.9033 223.585 78.9177 224.615 80.3245C225.645 81.7313 227.118 82.4324 229.033 82.4277C231.231 82.4277 233.453 81.7002 235.699 80.2451C237.945 78.79 240.284 76.5816 242.714 73.62C243.058 73.2011 243.335 72.7277 243.534 72.2179C243.747 71.6627 243.891 71.0816 243.962 70.4886C244.021 70.03 244.05 69.5678 244.047 69.1051C244.056 68.0987 243.885 67.3042 243.534 66.7215ZM117.891 72.8371C116.792 74.099 115.495 74.73 113.998 74.73C112.647 74.73 111.466 74.0289 110.455 72.6268C109.445 71.2247 108.942 69.1861 108.947 66.5112C108.947 63.1149 109.566 60.482 110.804 58.6125C112.043 56.743 113.598 55.8083 115.471 55.8083H115.822C115.681 56.5786 115.61 57.361 115.61 58.1452C115.605 59.9612 116.001 61.7544 116.768 63.3868C117.514 65.0061 118.665 66.3884 120.101 67.3899C119.727 69.761 118.99 71.5768 117.891 72.8371ZM150.126 94.6052C149.003 96.4498 147.837 97.3713 146.627 97.3697C145.645 97.3697 145.154 96.8361 145.154 95.769C145.154 93.1002 147.586 90.2609 152.45 87.251C152.021 90.3092 151.246 92.7606 150.126 94.6052ZM221.618 63.957C220.946 64.049 220.269 64.0973 219.591 64.1019C218.984 64.1197 218.38 64.0059 217.819 63.7676C217.257 63.5294 216.749 63.172 216.328 62.7184C215.902 62.2676 215.567 61.7324 215.344 61.1446C215.121 60.5569 215.015 59.9286 215.031 59.2972C215.031 57.5976 215.545 56.2873 216.573 55.3666C217.602 54.4459 219.052 53.9847 220.924 53.9832C222.45 54.0202 223.962 54.2903 225.412 54.7847C224.496 57.9852 223.223 61.0635 221.618 63.957Z" fill="url(#paint0_linear_4216_998)"/>
<path d="M243.534 66.7215C243.393 66.4551 243.185 66.2333 242.932 66.0798C242.679 65.9263 242.39 65.8469 242.097 65.8499C241.726 65.8504 241.36 65.9432 241.031 66.1205C240.701 66.2977 240.418 66.5543 240.203 66.8687C237.951 69.6823 236.197 71.6477 234.94 72.7647C233.684 73.8817 232.608 74.4402 231.713 74.4402C231.42 74.4552 231.128 74.3927 230.864 74.2587C230.6 74.1246 230.373 73.9234 230.204 73.6737C229.855 73.1643 229.68 72.4484 229.68 71.5261C229.693 69.4265 229.88 67.3318 230.241 65.2656C230.614 63.0331 231.152 60.3644 231.853 57.2595C232.604 54.153 233.025 51.9929 233.116 50.7793C233.175 50.4356 233.144 50.0817 233.025 49.755C232.906 49.4284 232.704 49.1412 232.441 48.9238C231.903 48.4564 231.167 48.2228 230.232 48.2228C228.595 48.2228 227.519 48.5865 227.004 49.3141C225.48 48.8377 223.92 48.493 222.341 48.2835C221.778 48.2087 221.215 48.1573 220.661 48.1223C220.176 48.0919 219.697 48.0779 219.217 48.0779C215.614 48.0779 212.808 49.0601 210.799 51.0247C208.79 52.9892 207.785 55.7678 207.782 59.3603C207.782 62.4668 208.612 64.9424 210.272 66.787C211.933 68.6315 214.166 69.553 216.972 69.5515H217.873C216.611 71.1282 215.12 72.4913 213.454 73.592C211.953 74.5392 210.479 75.0128 209.034 75.0128C208.499 75.0225 207.972 74.8864 207.504 74.6182C207.036 74.35 206.644 73.9591 206.367 73.4845C205.941 72.806 205.653 72.0441 205.521 71.2457C205.428 70.7113 205.382 70.1692 205.385 69.6263C205.401 69.0414 205.447 68.4578 205.525 67.8783C205.543 67.7871 205.559 67.6983 205.575 67.6189C205.624 67.3686 205.655 67.1147 205.667 66.8594C205.667 65.4573 204.825 64.7562 203.14 64.7562C201.224 64.7562 199.716 65.4845 198.616 66.9412C197.589 68.3012 197.042 70.1263 196.974 72.4165C196.889 72.5006 196.805 72.5777 196.722 72.6502C195.435 73.842 194.324 74.4371 193.389 74.4356C193.102 74.4421 192.818 74.3757 192.561 74.2421C192.304 74.1085 192.083 73.9118 191.916 73.6691C191.542 73.1596 191.356 72.4438 191.356 71.5215C191.356 70.0664 192.01 66.2323 193.319 60.0193C194.487 54.5869 195.072 51.263 195.074 50.0479C195.074 49.3188 194.863 48.821 194.443 48.5546C194.022 48.2882 193.272 48.155 192.191 48.155C190.648 48.155 189.49 48.4705 188.718 49.1014C187.947 49.7324 187.374 50.7754 187 52.2305C185.876 56.5522 184.718 60.1923 183.528 63.1508C182.337 66.1093 181.211 68.3176 180.15 69.7758C179.099 71.2309 178.222 71.9585 177.519 71.9585C177.295 71.9756 177.07 71.9268 176.871 71.8177C176.672 71.7086 176.506 71.5436 176.393 71.3415C176.159 70.9287 176.042 70.2128 176.042 69.1939C176.042 67.4958 176.51 64.098 177.445 59.0005C177.727 57.5438 178.103 55.9181 178.571 54.1234C179.086 51.8909 179.343 50.5807 179.343 50.1928C179.343 49.5135 179.145 49.0041 178.747 48.6644C178.349 48.3248 177.636 48.155 176.607 48.155C174.783 48.155 173.45 48.4705 172.608 49.1014C171.766 49.7324 171.111 50.7754 170.644 52.2305C169.641 55.3779 168.878 58.6027 168.365 61.8748C167.942 64.7235 167.711 67.5995 167.676 70.4816C165.463 72.1688 163.027 73.8739 160.368 75.597C160.413 74.5781 160.355 73.8989 160.193 73.5592C160.133 73.4076 160.031 73.278 159.9 73.1871C159.769 73.0963 159.614 73.0485 159.456 73.0498C159.22 73.0496 158.985 73.0739 158.754 73.1222C158.546 73.168 158.335 73.1922 158.123 73.1947C157.917 73.2074 157.711 73.1636 157.527 73.0676C157.342 72.9716 157.185 72.8268 157.071 72.6478C156.846 72.2856 156.72 71.643 156.72 70.7199C156.72 69.7968 156.929 68.2685 157.351 66.1326C157.772 63.9967 158.251 61.8374 158.754 59.6548C159.922 54.4139 160.506 51.2109 160.508 50.0455C160.508 49.3164 160.298 48.8187 159.877 48.5523C159.456 48.2858 158.706 48.1527 157.625 48.1527C156.124 48.1527 154.978 48.4557 154.187 49.0617C153.395 49.6677 152.811 50.7232 152.435 52.2282C150.933 58.0049 149.296 62.7371 147.523 66.4247C145.75 70.1123 144.23 71.9561 142.963 71.9561C142.734 71.9717 142.506 71.9182 142.306 71.8021C142.106 71.6859 141.943 71.5122 141.837 71.3018C141.603 70.8656 141.485 70.1645 141.485 69.1986C141.485 67.5488 141.953 64.1509 142.888 59.0051C143.171 57.5485 143.546 55.9228 144.014 54.1281C144.531 51.8956 144.788 50.5853 144.787 50.1974C144.787 49.4714 144.577 48.9495 144.156 48.6317C143.736 48.3139 143.034 48.1581 142.051 48.1643C140.273 48.1643 138.952 48.4674 138.087 49.0734C137.222 49.6794 136.556 50.7349 136.087 52.2399C135.243 54.9096 134.559 57.6311 134.038 60.3886C132.106 60.8653 130.141 61.1834 128.16 61.3397C127.787 57.6007 126.51 54.4583 124.332 51.9127C122.154 49.3671 119.294 48.0919 115.752 48.0872C112.934 48.0624 110.173 48.9111 107.823 50.5246C105.439 52.1511 103.568 54.41 102.211 57.3015C100.854 60.193 100.178 63.481 100.184 67.1655C100.18 68.4207 100.296 69.6732 100.531 70.9045C98.6827 73.5031 97.0913 74.8025 95.7567 74.8025C94.7268 74.8025 94.0257 74.3172 93.6533 73.3466C93.281 72.376 93.0941 70.5065 93.0926 67.7381C93.0926 65.9901 93.1857 63.3206 93.3718 59.7296C93.4191 58.8088 93.4664 57.7993 93.5137 56.708C93.561 55.6167 93.5835 54.5136 93.5835 53.3966C93.5835 51.3565 93.2772 49.9637 92.6715 49.2089C92.0657 48.4541 90.9172 48.0872 89.2327 48.0872C88.1699 48.0724 87.1206 48.3351 86.1813 48.8514C85.173 49.4384 84.2608 50.1877 83.4789 51.0714C82.497 52.1884 81.1638 54.5425 79.4794 58.1335C77.7949 61.7245 76.5555 64.9026 75.7613 67.6679H75.6217C75.2929 63.9804 75.1293 58.618 75.1308 51.5809C75.1308 50.3672 74.6984 49.4932 73.8336 48.9589C72.9689 48.4245 71.8812 48.1581 70.5705 48.1597C69.0272 48.1597 67.7998 48.511 66.8885 49.2136C65.9772 49.9162 65.2881 51.0208 64.8212 52.5273C63.4175 57.2353 61.9207 61.846 60.3308 66.3593C59.1597 69.7073 58.2477 71.879 57.5946 72.8745C56.9415 73.87 56.2869 74.367 55.6309 74.3655C55.1152 74.3655 54.7886 73.9238 54.6513 73.0334C54.5978 72.6551 54.5729 72.273 54.5769 71.8907C54.5769 71.4958 54.6085 70.991 54.6693 70.3717C54.7594 69.4681 54.9162 68.3246 55.1399 66.9412C55.1914 66.752 55.215 66.5558 55.2098 66.3593C55.2098 65.0475 54.2744 64.3924 52.4038 64.394C50.437 64.394 48.917 65.2064 47.8435 66.8314C47.1286 67.931 46.648 69.1762 46.4338 70.4839C44.38 71.1523 42.128 71.7552 39.6778 72.2927C35.6324 73.2068 31.5064 73.6822 27.3663 73.7111C21.4736 73.7111 17.1708 72.947 14.4579 71.4187C11.745 69.8903 10.3863 67.6212 10.3818 64.6113C10.3956 62.7733 11.0003 60.9928 12.1001 59.552C13.2471 57.9753 15.0945 56.6768 17.6422 55.6564C20.1899 54.6359 23.4058 54.0782 27.2897 53.9832C30.0957 53.9333 31.4986 52.3076 31.4986 49.1061C31.4986 48.0872 31.2877 47.3589 30.8658 46.9211C30.444 46.4833 29.7196 46.2411 28.6927 46.1943C24.6241 46.0479 21.689 45.2347 19.8874 43.7546C18.0858 42.2746 17.185 40.3942 17.185 38.1134C17.185 35.1534 18.3778 32.7993 20.7634 31.0513C23.149 29.3034 26.3288 28.4301 30.3028 28.4317C33.2499 28.4317 35.3518 28.977 36.6084 30.0675C37.219 30.5777 37.7077 31.2275 38.0362 31.9661C38.3647 32.7047 38.5243 33.5121 38.5023 34.3253C38.4504 35.4223 38.333 36.515 38.151 37.597C37.9284 38.4761 37.8104 39.3802 37.7997 40.289C37.7997 41.5042 38.175 42.4148 38.9257 43.0209C39.6763 43.6269 40.7055 43.9299 42.0131 43.9299C43.8823 43.9299 45.3198 43.0442 46.3257 41.2729C47.3316 39.5015 47.8345 37.1841 47.8345 34.3206C47.8345 30.1968 46.385 26.8356 43.4859 24.237C40.5869 21.6384 36.2331 20.3406 30.4244 20.3438C26.1232 20.3438 22.1717 21.0713 18.57 22.5264C14.9683 23.9815 12.1038 26.0567 9.97645 28.7519C7.88497 31.3555 6.75954 34.6493 6.80341 38.0386C6.78529 40.5559 7.56202 43.01 9.01485 45.0259C10.4877 47.112 12.6038 48.5678 15.3632 49.3935C10.3127 50.7037 6.48888 52.8272 3.8916 55.7639C1.29431 58.7006 -0.00282984 62.2565 0.000172799 66.4317C-0.015367 69.4477 1.01768 72.3682 2.90974 74.6576C4.85094 77.0864 7.8093 78.9909 11.7848 80.3712C15.7603 81.7516 20.6974 82.4409 26.5961 82.4394C30.9475 82.431 35.29 82.0291 39.5742 81.2382C42.3796 80.7604 45.1402 80.0333 47.8255 79.0649C47.9539 79.2729 48.0912 79.4762 48.2376 79.6725C49.5708 81.4688 51.4767 82.3669 53.9554 82.3669C56.901 82.3669 59.3331 81.4088 61.2518 79.4926C63.1705 77.5763 64.6906 75.1008 65.8121 72.066C66.9336 69.0327 68.0791 65.162 69.2486 60.454H69.3837C69.2441 61.9107 69.1743 63.4398 69.1743 65.0413C69.1723 67.6321 69.313 70.2209 69.5954 72.7951C69.8747 75.3423 70.2252 77.3442 70.6471 78.8009C71.0209 80.0628 71.442 80.9843 71.9104 81.5654C72.3789 82.1465 73.1295 82.4378 74.1624 82.4394C75.0604 82.466 75.9436 82.1986 76.6869 81.6752C77.3895 81.1658 77.9976 80.1835 78.511 78.7284L79.7046 75.4568C80.9657 71.8658 82.1112 68.7593 83.1411 66.1373C84.0773 63.7056 85.1751 61.3443 86.4267 59.0706H86.5686C85.8179 63.8752 85.4426 67.8791 85.4426 71.0821C85.4426 74.7697 85.9808 77.5841 87.0573 79.5253C88.1337 81.4665 89.9113 82.4378 92.39 82.4394C94.8197 82.4413 97.1794 81.5952 99.0896 80.0371C100.387 79.0036 101.613 77.8768 102.758 76.6649C103.677 78.1151 104.862 79.3627 106.246 80.3362C108.233 81.7383 110.63 82.4394 113.437 82.4394C116.756 82.4394 119.726 81.2141 122.346 78.7635C124.966 76.3129 126.719 73.049 127.606 68.9719C129.472 68.8981 131.33 68.6676 133.16 68.2825C133.106 69.451 133.079 70.6514 133.079 71.8837C133.079 74.9435 133.754 77.4673 135.106 79.4552C136.457 81.4431 138.166 82.4378 140.233 82.4394C142.152 82.4394 143.894 81.5171 145.46 79.6725C147.026 77.8279 148.184 75.329 148.933 72.1758C148.933 74.4067 149.319 76.2147 150.09 77.5997C150.862 78.9847 151.926 79.7971 153.281 80.0371V80.1843C149.307 82.6598 146.23 84.8674 144.048 86.807C141.867 88.7466 140.37 90.5063 139.558 92.086C138.752 93.6151 138.33 95.3301 138.33 97.0729C138.33 99.1107 138.974 100.809 140.26 102.167C141.547 103.526 143.172 104.206 145.136 104.207C148.081 104.207 150.701 103.039 152.993 100.702C155.286 98.3652 157.016 95.0157 158.184 90.6535C158.745 88.5176 159.33 85.9946 159.938 83.0844C163.658 80.7849 166.564 78.9224 168.653 77.4969C168.923 78.1675 169.259 78.8073 169.655 79.4061C170.987 81.4236 172.705 82.4308 174.81 82.4277C176.634 82.4277 178.341 81.542 179.931 79.7707C181.521 77.9993 182.714 75.4638 183.51 72.1641C183.51 75.4139 184.035 77.9378 185.086 79.7356C186.137 81.5334 187.788 82.4308 190.04 82.4277C192.851 82.4671 195.604 81.6026 197.922 79.9529C198.296 79.6865 198.668 79.4084 199.033 79.114C199.235 79.3591 199.449 79.5931 199.674 79.8151C201.476 81.5599 203.826 82.4331 206.725 82.4347C213.46 82.4347 219.002 78.1886 223.352 69.6964H223.491C223.224 71.2092 223.083 72.7433 223.07 74.2813C223.07 76.9033 223.585 78.9177 224.615 80.3245C225.645 81.7313 227.118 82.4324 229.033 82.4277C231.231 82.4277 233.453 81.7002 235.699 80.2451C237.945 78.79 240.284 76.5816 242.714 73.62C243.058 73.2011 243.335 72.7277 243.534 72.2179C243.747 71.6627 243.891 71.0816 243.962 70.4886C244.021 70.03 244.05 69.5678 244.047 69.1051C244.056 68.0987 243.885 67.3042 243.534 66.7215ZM117.891 72.8371C116.792 74.099 115.495 74.73 113.998 74.73C112.647 74.73 111.466 74.0289 110.455 72.6268C109.445 71.2247 108.942 69.1861 108.947 66.5112C108.947 63.1149 109.566 60.482 110.804 58.6125C112.043 56.743 113.598 55.8083 115.471 55.8083H115.822C115.681 56.5786 115.61 57.361 115.61 58.1452C115.605 59.9612 116.001 61.7544 116.768 63.3868C117.514 65.0061 118.665 66.3884 120.101 67.3899C119.727 69.761 118.99 71.5768 117.891 72.8371ZM150.126 94.6052C149.003 96.4498 147.837 97.3713 146.627 97.3697C145.645 97.3697 145.154 96.8361 145.154 95.769C145.154 93.1002 147.586 90.2609 152.45 87.251C152.021 90.3092 151.246 92.7606 150.126 94.6052ZM221.618 63.957C220.946 64.049 220.269 64.0973 219.591 64.1019C218.984 64.1197 218.38 64.0059 217.819 63.7676C217.257 63.5294 216.749 63.172 216.328 62.7184C215.902 62.2676 215.567 61.7324 215.344 61.1446C215.121 60.5569 215.015 59.9286 215.031 59.2972C215.031 57.5976 215.545 56.2873 216.573 55.3666C217.602 54.4459 219.052 53.9847 220.924 53.9832C222.45 54.0202 223.962 54.2903 225.412 54.7847C224.496 57.9852 223.223 61.0635 221.618 63.957Z" fill="white"/>
<path d="M126.229 35.2963L119.427 28.5192H122.316L129.298 35.2963H126.229ZM117.406 35.2963V21.7422H119.606V35.2963H117.406ZM119.427 28.5192L125.973 21.7422H128.991L122.316 28.5192H119.427Z" fill="white"/>
<path d="M102.875 35.2963V21.7422H105.023V32.0229L110.905 21.7422H113.437V35.2963H111.289V25.2202L105.535 35.2963H102.875Z" fill="white"/>
<path d="M93.8065 35.2963V23.6346H88.9219V21.7422H100.865V23.6346H95.9802V35.2963H93.8065Z" fill="white"/>
<path d="M77.3762 39.1324V37.2399H78.9362C79.4135 37.2399 79.7631 37.1632 79.9847 37.0097C80.2234 36.8733 80.4024 36.6432 80.5217 36.3192L81.0076 35.0406H80.266L75.3047 21.7422H77.6575L81.6981 33.0458L85.5598 21.7422H87.9126L82.4142 37.0097C82.1585 37.7429 81.7749 38.2799 81.2634 38.6209C80.7519 38.9619 80.0444 39.1324 79.1408 39.1324H77.3762Z" fill="white"/>
<path d="M67.9524 35.7068C67.1681 35.7068 66.3839 35.5533 65.5996 35.2464C64.8154 34.9396 64.0993 34.4366 63.4514 33.7376C62.8036 33.0897 62.3176 32.2032 61.9937 31.0779C61.6698 29.9527 61.5078 28.691 61.5078 27.293C61.5078 25.6392 61.6613 24.2668 61.9681 23.1756C62.275 22.0845 62.7695 21.1894 63.4514 20.4904C64.1504 19.7743 65.0626 19.1776 66.1878 18.7002C66.7675 18.4445 67.2193 18.1973 67.5432 17.9586C67.8672 17.7028 68.0973 17.413 68.2337 17.0891C68.3701 16.7481 68.4383 16.3389 68.4383 15.8615L70.6377 15.8359C70.6377 16.8248 70.4331 17.6858 70.0239 18.4189C69.6147 19.152 68.8816 19.7658 67.8245 20.2602C67.2449 20.533 66.6993 20.8058 66.1878 21.0786C65.6763 21.3514 65.2245 21.7009 64.8324 22.1271C64.4573 22.5363 64.1675 23.0904 63.9629 23.7894C63.7754 24.4884 63.6986 25.4091 63.7327 26.5514L63.298 26.5002C63.5878 25.733 63.9714 25.0851 64.4488 24.5566C64.9432 24.0281 65.5229 23.6274 66.1878 23.3546C66.8527 23.0648 67.5688 22.9199 68.336 22.9199C69.5465 22.9199 70.6036 23.1927 71.5072 23.7382C72.4108 24.2668 73.1098 25.0084 73.6042 25.9632C74.1157 26.9179 74.3714 28.0176 74.3714 29.2622C74.3714 30.575 74.0986 31.7173 73.5531 32.6891C73.0075 33.6609 72.2488 34.411 71.277 34.9396C70.3222 35.451 69.214 35.7068 67.9524 35.7068ZM68.0036 33.6609C68.8049 33.6609 69.5124 33.4733 70.1262 33.0982C70.757 32.7232 71.2429 32.2032 71.5839 31.5382C71.9419 30.8733 72.1209 30.1146 72.1209 29.2622C72.1209 28.4268 71.9504 27.6851 71.6095 27.0373C71.2855 26.3894 70.8252 25.8864 70.2285 25.5284C69.6318 25.1533 68.9498 24.9658 68.1826 24.9658C67.3472 24.9658 66.6055 25.1533 65.9577 25.5284C65.3098 25.8864 64.7983 26.3894 64.4232 27.0373C64.0652 27.6851 63.8777 28.4268 63.8606 29.2622C63.8436 30.1146 64.0055 30.8733 64.3465 31.5382C64.7045 32.2032 65.199 32.7232 65.8298 33.0982C66.4606 33.4733 67.1852 33.6609 68.0036 33.6609Z" fill="white"/>
<defs>
<linearGradient id="paint0_linear_4216_998" x1="122.024" y1="20.7808" x2="122.024" y2="104.207" gradientUnits="userSpaceOnUse">
<stop stop-color="#26145D"/>
<stop offset="1" stop-color="#2C127A"/>
</linearGradient>
</defs>
</svg>
