<svg preserveAspectRatio="none" width="100%" height="100%" overflow="visible" style="display: block;" viewBox="0 0 244.048 83.8637" fill="none" xmlns="http://www.w3.org/2000/svg">
<g id="Vector">
<path d="M243.534 46.3778C243.393 46.1113 243.185 45.8895 242.932 45.7361C242.679 45.5826 242.39 45.5031 242.097 45.5061C241.726 45.5067 241.36 45.5995 241.031 45.7767C240.701 45.954 240.418 46.2106 240.203 46.525C237.951 49.3386 236.197 51.3039 234.94 52.4209C233.684 53.538 232.608 54.0965 231.713 54.0965C231.42 54.1114 231.128 54.0489 230.864 53.9149C230.6 53.7809 230.373 53.5796 230.204 53.33C229.855 52.8205 229.68 52.1047 229.68 51.1824C229.693 49.0827 229.88 46.9881 230.24 44.9219C230.614 42.6894 231.152 40.0207 231.853 36.9157C232.604 33.8092 233.025 31.6492 233.116 30.4356C233.175 30.0918 233.144 29.7379 233.025 29.4113C232.906 29.0847 232.704 28.7975 232.441 28.5801C231.903 28.1127 231.167 27.879 230.231 27.879C228.595 27.879 227.519 28.2428 227.004 28.9703C225.48 28.494 223.92 28.1493 222.341 27.9398C221.778 27.865 221.215 27.8136 220.661 27.7785C220.176 27.7481 219.697 27.7341 219.217 27.7341C215.614 27.7341 212.808 28.7164 210.799 30.6809C208.79 32.6455 207.784 35.424 207.781 39.0166C207.781 42.1231 208.612 44.5986 210.272 46.4432C211.933 48.2878 214.166 49.2093 216.972 49.2077H217.873C216.611 50.7844 215.12 52.1476 213.454 53.2482C211.953 54.1954 210.479 54.669 209.034 54.669C208.499 54.6787 207.972 54.5427 207.504 54.2745C207.036 54.0063 206.644 53.6153 206.367 53.1407C205.941 52.4622 205.653 51.7003 205.52 50.902C205.428 50.3676 205.382 49.8255 205.385 49.2825C205.401 48.6976 205.447 48.114 205.525 47.5345C205.543 47.4434 205.559 47.3546 205.575 47.2751C205.624 47.0249 205.655 46.7709 205.667 46.5156C205.667 45.1135 204.825 44.4124 203.14 44.4124C201.224 44.4124 199.716 45.1408 198.616 46.5974C197.589 47.9575 197.042 49.7826 196.974 52.0727C196.889 52.1569 196.805 52.234 196.722 52.3064C195.435 53.4982 194.324 54.0934 193.389 54.0918C193.102 54.0984 192.818 54.0319 192.561 53.8983C192.304 53.7647 192.083 53.568 191.916 53.3253C191.542 52.8159 191.356 52.1 191.356 51.1777C191.356 49.7226 192.01 45.8886 193.319 39.6756C194.487 34.2431 195.072 30.9193 195.074 29.7041C195.074 28.975 194.863 28.4772 194.443 28.2108C194.022 27.9444 193.272 27.8112 192.191 27.8112C190.648 27.8112 189.49 28.1267 188.718 28.7577C187.947 29.3886 187.374 30.4317 187 31.8868C185.876 36.2084 184.718 39.8485 183.528 42.807C182.337 45.7655 181.211 47.9739 180.15 49.4321C179.099 50.8872 178.222 51.6147 177.519 51.6147C177.295 51.6318 177.07 51.5831 176.871 51.474C176.672 51.3649 176.506 51.1999 176.393 50.9978C176.159 50.5849 176.042 49.8691 176.042 48.8502C176.042 47.1521 176.51 43.7542 177.445 38.6567C177.727 37.2001 178.103 35.5744 178.571 33.7796C179.086 31.5471 179.343 30.2369 179.343 29.849C179.343 29.1697 179.145 28.6603 178.747 28.3207C178.349 27.9811 177.636 27.8112 176.607 27.8112C174.783 27.8112 173.45 28.1267 172.608 28.7577C171.766 29.3886 171.111 30.4317 170.644 31.8868C169.641 35.0341 168.878 38.259 168.365 41.5311C167.941 44.3797 167.711 47.2557 167.676 50.1378C165.463 51.825 163.027 53.5302 160.368 55.2532C160.413 54.2344 160.355 53.5551 160.193 53.2155C160.133 53.0638 160.031 52.9342 159.9 52.8434C159.769 52.7526 159.614 52.7047 159.456 52.706C159.22 52.7058 158.985 52.7301 158.754 52.7785C158.546 52.8242 158.335 52.8485 158.123 52.8509C157.917 52.8637 157.711 52.8198 157.527 52.7238C157.342 52.6278 157.185 52.4831 157.071 52.3041C156.846 51.9419 156.72 51.2992 156.72 50.3762C156.72 49.4531 156.929 47.9248 157.351 45.7889C157.772 43.653 158.251 41.4937 158.754 39.311C159.922 34.0702 160.506 30.8671 160.508 29.7018C160.508 28.9727 160.298 28.4749 159.877 28.2085C159.456 27.9421 158.706 27.8089 157.625 27.8089C156.124 27.8089 154.978 28.1119 154.187 28.718C153.395 29.324 152.811 30.3795 152.435 31.8844C150.933 37.6612 149.296 42.3934 147.523 46.081C145.75 49.7686 144.23 51.6124 142.963 51.6124C142.734 51.628 142.506 51.5744 142.306 51.4583C142.106 51.3422 141.943 51.1684 141.837 50.9581C141.603 50.5218 141.485 49.8208 141.485 48.8549C141.485 47.205 141.953 43.8072 142.888 38.6614C143.171 37.2047 143.546 35.579 144.014 33.7843C144.531 31.5518 144.788 30.2416 144.787 29.8537C144.787 29.1277 144.577 28.6058 144.156 28.288C143.736 27.9701 143.034 27.8143 142.051 27.8206C140.273 27.8206 138.952 28.1236 138.087 28.7296C137.222 29.3357 136.556 30.3912 136.087 31.8961C135.243 34.5659 134.559 37.2873 134.038 40.0448C132.106 40.5216 130.141 40.8396 128.16 40.9959C127.787 37.2569 126.51 34.1146 124.332 31.5689C122.154 29.0233 119.294 27.7481 115.752 27.7435C112.934 27.7187 110.173 28.5674 107.823 30.1808C105.439 31.8073 103.568 34.0663 102.211 36.9578C100.854 39.8493 100.178 43.1373 100.184 46.8218C100.18 48.077 100.296 49.3294 100.531 50.5608C98.6827 53.1594 97.0913 54.4587 95.7567 54.4587C94.7268 54.4587 94.0256 53.9734 93.6533 53.0028C93.281 52.0322 93.0941 50.1627 93.0926 47.3943C93.0926 45.6463 93.1857 42.9768 93.3718 39.3858C93.4191 38.4651 93.4664 37.4556 93.5137 36.3642C93.561 35.2729 93.5835 34.1699 93.5835 33.0529C93.5835 31.0128 93.2772 29.62 92.6714 28.8652C92.0657 28.1104 90.9172 27.7435 89.2327 27.7435C88.1699 27.7286 87.1205 27.9914 86.1813 28.5076C85.173 29.0947 84.2608 29.844 83.4789 30.7277C82.497 31.8447 81.1638 34.1987 79.4794 37.7897C77.7949 41.3807 76.5555 44.5589 75.7613 47.3242H75.6217C75.2929 43.6366 75.1293 38.2742 75.1308 31.2371C75.1308 30.0235 74.6984 29.1495 73.8336 28.6151C72.9689 28.0808 71.8812 27.8144 70.5705 27.8159C69.0272 27.8159 67.7998 28.1672 66.8885 28.8698C65.9772 29.5725 65.2881 30.677 64.8212 32.1835C63.4175 36.8916 61.9206 41.5023 60.3307 46.0155C59.1597 49.3635 58.2477 51.5353 57.5946 52.5308C56.9415 53.5263 56.2869 54.0233 55.6309 54.0217C55.1152 54.0217 54.7886 53.58 54.6513 52.6897C54.5978 52.3114 54.5729 51.9293 54.5769 51.5469C54.5769 51.152 54.6085 50.6472 54.6693 50.028C54.7593 49.1244 54.9162 47.9809 55.1399 46.5974C55.1914 46.4082 55.215 46.2121 55.2097 46.0155C55.2097 44.7038 54.2744 44.0487 52.4038 44.0502C50.437 44.0502 48.917 44.8627 47.8435 46.4876C47.1286 47.5872 46.648 48.8324 46.4338 50.1402C44.38 50.8085 42.128 51.4114 39.6778 51.9489C35.6324 52.863 31.5064 53.3384 27.3663 53.3674C21.4736 53.3674 17.1708 52.6032 14.4579 51.0749C11.745 49.5466 10.3863 47.2775 10.3818 44.2676C10.3956 42.4296 11.0003 40.649 12.1001 39.2082C13.2471 37.6316 15.0945 36.3331 17.6422 35.3126C20.1899 34.2922 23.4058 33.7345 27.2897 33.6394C30.0956 33.5896 31.4986 31.9639 31.4986 28.7623C31.4986 27.7435 31.2877 27.0151 30.8658 26.5774C30.444 26.1396 29.7196 25.8973 28.6927 25.8506C24.6241 25.7041 21.689 24.8909 19.8874 23.4109C18.0858 21.9309 17.185 20.0505 17.185 17.7697C17.185 14.8096 18.3778 12.4556 20.7634 10.7076C23.149 8.95961 26.3288 8.0864 30.3028 8.08796C33.2499 8.08796 35.3518 8.63323 36.6084 9.72377C37.219 10.234 37.7077 10.8837 38.0362 11.6223C38.3647 12.361 38.5243 13.1684 38.5023 13.9816C38.4504 15.0786 38.333 16.1712 38.151 17.2532C37.9284 18.1323 37.8104 19.0364 37.7997 19.9453C37.7997 21.1605 38.175 22.0711 38.9257 22.6771C39.6763 23.2831 40.7055 23.5862 42.0131 23.5862C43.8823 23.5862 45.3198 22.7005 46.3257 20.9291C47.3316 19.1578 47.8345 16.8404 47.8345 13.9769C47.8345 9.85308 46.385 6.49186 43.4859 3.89325C40.5869 1.29464 36.2331 -0.00311025 30.4244 5.59732e-06C26.1232 5.59732e-06 22.1717 0.727554 18.57 2.18265C14.9683 3.63775 12.1038 5.71291 9.97645 8.40811C7.88497 11.0117 6.75954 14.3056 6.80341 17.6949C6.78529 20.2121 7.56202 22.6662 9.01485 24.6822C10.4876 26.7682 12.6038 28.2241 15.3632 29.0498C10.3127 30.36 6.48888 32.4834 3.8916 35.4201C1.29431 38.3568 -0.00282984 41.9128 0.000172799 46.088C-0.015367 49.1039 1.01768 52.0245 2.90974 54.3138C4.85094 56.7426 7.8093 58.6472 11.7848 60.0275C15.7603 61.4078 20.6974 62.0972 26.5961 62.0956C30.9475 62.0873 35.29 61.6853 39.5742 60.8945C42.3796 60.4167 45.1402 59.6896 47.8255 58.7212C47.9539 58.9292 48.0912 59.1325 48.2376 59.3288C49.5708 61.125 51.4767 62.0232 53.9554 62.0232C56.901 62.0232 59.3331 61.0651 61.2518 59.1488C63.1705 57.2326 64.6906 54.757 65.8121 51.7222C66.9336 48.6889 68.0791 44.8183 69.2486 40.1103H69.3837C69.2441 41.5669 69.1743 43.096 69.1743 44.6975C69.1723 47.2883 69.3129 49.8771 69.5954 52.4513C69.8747 54.9985 70.2252 57.0004 70.6471 58.4571C71.0209 59.719 71.442 60.6405 71.9104 61.2216C72.3788 61.8027 73.1295 62.0941 74.1624 62.0956C75.0603 62.1222 75.9436 61.8549 76.6869 61.3315C77.3895 60.822 77.9976 59.8398 78.511 58.3847L79.7045 55.113C80.9657 51.522 82.1112 48.4155 83.1411 45.7935C84.0773 43.3618 85.1751 41.0006 86.4267 38.7268H86.5686C85.8179 43.5314 85.4426 47.5353 85.4426 50.7384C85.4426 54.426 85.9808 57.2404 87.0573 59.1815C88.1337 61.1227 89.9113 62.0941 92.39 62.0956C94.8197 62.0976 97.1794 61.2514 99.0896 59.6933C100.387 58.6599 101.613 57.533 102.758 56.3212C103.677 57.7713 104.862 59.019 106.246 59.9924C108.233 61.3946 110.63 62.0956 113.437 62.0956C116.756 62.0956 119.726 60.8703 122.346 58.4197C124.966 55.9691 126.719 52.7053 127.606 48.6282C129.472 48.5544 131.33 48.3238 133.16 47.9388C133.106 49.1072 133.079 50.3076 133.079 51.5399C133.079 54.5997 133.754 57.1235 135.106 59.1114C136.457 61.0993 138.166 62.0941 140.233 62.0956C142.152 62.0956 143.894 61.1733 145.46 59.3288C147.026 57.4842 148.184 54.9853 148.933 51.8321C148.933 54.063 149.319 55.871 150.09 57.2559C150.862 58.6409 151.926 59.4534 153.281 59.6933V59.8405C149.307 62.3161 146.23 64.5237 144.048 66.4633C141.867 68.4029 140.37 70.1626 139.558 71.7423C138.752 73.2713 138.33 74.9863 138.33 76.7292C138.33 78.7669 138.974 80.4651 140.26 81.8236C141.547 83.1821 143.172 83.8621 145.136 83.8637C148.081 83.8637 150.701 82.6953 152.993 80.3584C155.286 78.0215 157.016 74.672 158.184 70.3098C158.745 68.1739 159.33 65.6508 159.938 62.7406C163.658 60.4411 166.563 58.5786 168.653 57.1531C168.923 57.8238 169.259 58.4636 169.655 59.0624C170.987 61.0799 172.705 62.0871 174.81 62.084C176.634 62.084 178.341 61.1983 179.931 59.4269C181.521 57.6556 182.714 55.12 183.51 51.8204C183.51 55.0702 184.035 57.594 185.086 59.3919C186.137 61.1897 187.788 62.0871 190.04 62.084C192.851 62.1234 195.604 61.2588 197.922 59.6092C198.296 59.3428 198.668 59.0647 199.033 58.7703C199.235 59.0153 199.449 59.2493 199.674 59.4713C201.476 61.2162 203.826 62.0894 206.725 62.091C213.46 62.091 219.002 57.8448 223.352 49.3526H223.491C223.224 50.8655 223.083 52.3995 223.07 53.9376C223.07 56.5596 223.585 58.574 224.615 59.9808C225.645 61.3876 227.118 62.0886 229.033 62.084C231.231 62.084 233.453 61.3564 235.699 59.9013C237.945 58.4462 240.284 56.2379 242.714 53.2762C243.058 52.8574 243.335 52.384 243.534 51.8741C243.747 51.319 243.891 50.7378 243.962 50.1448C244.021 49.6863 244.05 49.224 244.047 48.7614C244.056 47.755 243.885 46.9604 243.534 46.3778ZM117.891 52.4934C116.792 53.7553 115.495 54.3863 113.998 54.3863C112.647 54.3863 111.466 53.6852 110.455 52.2831C109.445 50.8809 108.942 48.8424 108.947 46.1674C108.947 42.7712 109.566 40.1383 110.804 38.2688C112.043 36.3993 113.598 35.4645 115.471 35.4645H115.822C115.681 36.2349 115.61 37.0173 115.61 37.8014C115.605 39.6175 116.001 41.4106 116.768 43.043C117.514 44.6624 118.665 46.0446 120.101 47.0461C119.727 49.4173 118.99 51.233 117.891 52.4934ZM150.126 74.2614C149.003 76.106 147.837 77.0275 146.627 77.026C145.645 77.026 145.154 76.4924 145.154 75.4252C145.154 72.7565 147.586 69.9172 152.45 66.9073C152.021 69.9655 151.246 72.4169 150.126 74.2614ZM221.618 43.6132C220.946 43.7052 220.269 43.7536 219.591 43.7581C218.984 43.7759 218.38 43.6621 217.819 43.4239C217.257 43.1857 216.749 42.8283 216.328 42.3747C215.901 41.9238 215.567 41.3886 215.344 40.8009C215.121 40.2131 215.015 39.5849 215.031 38.9535C215.031 37.2538 215.545 35.9436 216.573 35.0229C217.602 34.1021 219.052 33.641 220.924 33.6394C222.45 33.6764 223.962 33.9465 225.412 34.441C224.496 37.6415 223.223 40.7198 221.618 43.6132Z" fill="url(#paint0_linear_0_14)"/>
<path d="M243.534 46.3778C243.393 46.1113 243.185 45.8895 242.932 45.7361C242.679 45.5826 242.39 45.5031 242.097 45.5061C241.726 45.5067 241.36 45.5995 241.031 45.7767C240.701 45.954 240.418 46.2106 240.203 46.525C237.951 49.3386 236.197 51.3039 234.94 52.4209C233.684 53.538 232.608 54.0965 231.713 54.0965C231.42 54.1114 231.128 54.0489 230.864 53.9149C230.6 53.7809 230.373 53.5796 230.204 53.33C229.855 52.8205 229.68 52.1047 229.68 51.1824C229.693 49.0827 229.88 46.9881 230.24 44.9219C230.614 42.6894 231.152 40.0207 231.853 36.9157C232.604 33.8092 233.025 31.6492 233.116 30.4356C233.175 30.0918 233.144 29.7379 233.025 29.4113C232.906 29.0847 232.704 28.7975 232.441 28.5801C231.903 28.1127 231.167 27.879 230.231 27.879C228.595 27.879 227.519 28.2428 227.004 28.9703C225.48 28.494 223.92 28.1493 222.341 27.9398C221.778 27.865 221.215 27.8136 220.661 27.7785C220.176 27.7481 219.697 27.7341 219.217 27.7341C215.614 27.7341 212.808 28.7164 210.799 30.6809C208.79 32.6455 207.784 35.424 207.781 39.0166C207.781 42.1231 208.612 44.5986 210.272 46.4432C211.933 48.2878 214.166 49.2093 216.972 49.2077H217.873C216.611 50.7844 215.12 52.1476 213.454 53.2482C211.953 54.1954 210.479 54.669 209.034 54.669C208.499 54.6787 207.972 54.5427 207.504 54.2745C207.036 54.0063 206.644 53.6153 206.367 53.1407C205.941 52.4622 205.653 51.7003 205.52 50.902C205.428 50.3676 205.382 49.8255 205.385 49.2825C205.401 48.6976 205.447 48.114 205.525 47.5345C205.543 47.4434 205.559 47.3546 205.575 47.2751C205.624 47.0249 205.655 46.7709 205.667 46.5156C205.667 45.1135 204.825 44.4124 203.14 44.4124C201.224 44.4124 199.716 45.1408 198.616 46.5974C197.589 47.9575 197.042 49.7826 196.974 52.0727C196.889 52.1569 196.805 52.234 196.722 52.3064C195.435 53.4982 194.324 54.0934 193.389 54.0918C193.102 54.0984 192.818 54.0319 192.561 53.8983C192.304 53.7647 192.083 53.568 191.916 53.3253C191.542 52.8159 191.356 52.1 191.356 51.1777C191.356 49.7226 192.01 45.8886 193.319 39.6756C194.487 34.2431 195.072 30.9193 195.074 29.7041C195.074 28.975 194.863 28.4772 194.443 28.2108C194.022 27.9444 193.272 27.8112 192.191 27.8112C190.648 27.8112 189.49 28.1267 188.718 28.7577C187.947 29.3886 187.374 30.4317 187 31.8868C185.876 36.2084 184.718 39.8485 183.528 42.807C182.337 45.7655 181.211 47.9739 180.15 49.4321C179.099 50.8872 178.222 51.6147 177.519 51.6147C177.295 51.6318 177.07 51.5831 176.871 51.474C176.672 51.3649 176.506 51.1999 176.393 50.9978C176.159 50.5849 176.042 49.8691 176.042 48.8502C176.042 47.1521 176.51 43.7542 177.445 38.6567C177.727 37.2001 178.103 35.5744 178.571 33.7796C179.086 31.5471 179.343 30.2369 179.343 29.849C179.343 29.1697 179.145 28.6603 178.747 28.3207C178.349 27.9811 177.636 27.8112 176.607 27.8112C174.783 27.8112 173.45 28.1267 172.608 28.7577C171.766 29.3886 171.111 30.4317 170.644 31.8868C169.641 35.0341 168.878 38.259 168.365 41.5311C167.941 44.3797 167.711 47.2557 167.676 50.1378C165.463 51.825 163.027 53.5302 160.368 55.2532C160.413 54.2344 160.355 53.5551 160.193 53.2155C160.133 53.0638 160.031 52.9342 159.9 52.8434C159.769 52.7526 159.614 52.7047 159.456 52.706C159.22 52.7058 158.985 52.7301 158.754 52.7785C158.546 52.8242 158.335 52.8485 158.123 52.8509C157.917 52.8637 157.711 52.8198 157.527 52.7238C157.342 52.6278 157.185 52.4831 157.071 52.3041C156.846 51.9419 156.72 51.2992 156.72 50.3762C156.72 49.4531 156.929 47.9248 157.351 45.7889C157.772 43.653 158.251 41.4937 158.754 39.311C159.922 34.0702 160.506 30.8671 160.508 29.7018C160.508 28.9727 160.298 28.4749 159.877 28.2085C159.456 27.9421 158.706 27.8089 157.625 27.8089C156.124 27.8089 154.978 28.1119 154.187 28.718C153.395 29.324 152.811 30.3795 152.435 31.8844C150.933 37.6612 149.296 42.3934 147.523 46.081C145.75 49.7686 144.23 51.6124 142.963 51.6124C142.734 51.628 142.506 51.5744 142.306 51.4583C142.106 51.3422 141.943 51.1684 141.837 50.9581C141.603 50.5218 141.485 49.8208 141.485 48.8549C141.485 47.205 141.953 43.8072 142.888 38.6614C143.171 37.2047 143.546 35.579 144.014 33.7843C144.531 31.5518 144.788 30.2416 144.787 29.8537C144.787 29.1277 144.577 28.6058 144.156 28.288C143.736 27.9701 143.034 27.8143 142.051 27.8206C140.273 27.8206 138.952 28.1236 138.087 28.7296C137.222 29.3357 136.556 30.3912 136.087 31.8961C135.243 34.5659 134.559 37.2873 134.038 40.0448C132.106 40.5216 130.141 40.8396 128.16 40.9959C127.787 37.2569 126.51 34.1146 124.332 31.5689C122.154 29.0233 119.294 27.7481 115.752 27.7435C112.934 27.7187 110.173 28.5674 107.823 30.1808C105.439 31.8073 103.568 34.0663 102.211 36.9578C100.854 39.8493 100.178 43.1373 100.184 46.8218C100.18 48.077 100.296 49.3294 100.531 50.5608C98.6827 53.1594 97.0913 54.4587 95.7567 54.4587C94.7268 54.4587 94.0256 53.9734 93.6533 53.0028C93.281 52.0322 93.0941 50.1627 93.0926 47.3943C93.0926 45.6463 93.1857 42.9768 93.3718 39.3858C93.4191 38.4651 93.4664 37.4556 93.5137 36.3642C93.561 35.2729 93.5835 34.1699 93.5835 33.0529C93.5835 31.0128 93.2772 29.62 92.6714 28.8652C92.0657 28.1104 90.9172 27.7435 89.2327 27.7435C88.1699 27.7286 87.1205 27.9914 86.1813 28.5076C85.173 29.0947 84.2608 29.844 83.4789 30.7277C82.497 31.8447 81.1638 34.1987 79.4794 37.7897C77.7949 41.3807 76.5555 44.5589 75.7613 47.3242H75.6217C75.2929 43.6366 75.1293 38.2742 75.1308 31.2371C75.1308 30.0235 74.6984 29.1495 73.8336 28.6151C72.9689 28.0808 71.8812 27.8144 70.5705 27.8159C69.0272 27.8159 67.7998 28.1672 66.8885 28.8698C65.9772 29.5725 65.2881 30.677 64.8212 32.1835C63.4175 36.8916 61.9206 41.5023 60.3307 46.0155C59.1597 49.3635 58.2477 51.5353 57.5946 52.5308C56.9415 53.5263 56.2869 54.0233 55.6309 54.0217C55.1152 54.0217 54.7886 53.58 54.6513 52.6897C54.5978 52.3114 54.5729 51.9293 54.5769 51.5469C54.5769 51.152 54.6085 50.6472 54.6693 50.028C54.7593 49.1244 54.9162 47.9809 55.1399 46.5974C55.1914 46.4082 55.215 46.2121 55.2097 46.0155C55.2097 44.7038 54.2744 44.0487 52.4038 44.0502C50.437 44.0502 48.917 44.8627 47.8435 46.4876C47.1286 47.5872 46.648 48.8324 46.4338 50.1402C44.38 50.8085 42.128 51.4114 39.6778 51.9489C35.6324 52.863 31.5064 53.3384 27.3663 53.3674C21.4736 53.3674 17.1708 52.6032 14.4579 51.0749C11.745 49.5466 10.3863 47.2775 10.3818 44.2676C10.3956 42.4296 11.0003 40.649 12.1001 39.2082C13.2471 37.6316 15.0945 36.3331 17.6422 35.3126C20.1899 34.2922 23.4058 33.7345 27.2897 33.6394C30.0956 33.5896 31.4986 31.9639 31.4986 28.7623C31.4986 27.7435 31.2877 27.0151 30.8658 26.5774C30.444 26.1396 29.7196 25.8973 28.6927 25.8506C24.6241 25.7041 21.689 24.8909 19.8874 23.4109C18.0858 21.9309 17.185 20.0505 17.185 17.7697C17.185 14.8096 18.3778 12.4556 20.7634 10.7076C23.149 8.95961 26.3288 8.0864 30.3028 8.08796C33.2499 8.08796 35.3518 8.63323 36.6084 9.72377C37.219 10.234 37.7077 10.8837 38.0362 11.6223C38.3647 12.361 38.5243 13.1684 38.5023 13.9816C38.4504 15.0786 38.333 16.1712 38.151 17.2532C37.9284 18.1323 37.8104 19.0364 37.7997 19.9453C37.7997 21.1605 38.175 22.0711 38.9257 22.6771C39.6763 23.2831 40.7055 23.5862 42.0131 23.5862C43.8823 23.5862 45.3198 22.7005 46.3257 20.9291C47.3316 19.1578 47.8345 16.8404 47.8345 13.9769C47.8345 9.85308 46.385 6.49186 43.4859 3.89325C40.5869 1.29464 36.2331 -0.00311025 30.4244 5.59732e-06C26.1232 5.59732e-06 22.1717 0.727554 18.57 2.18265C14.9683 3.63775 12.1038 5.71291 9.97645 8.40811C7.88497 11.0117 6.75954 14.3056 6.80341 17.6949C6.78529 20.2121 7.56202 22.6662 9.01485 24.6822C10.4876 26.7682 12.6038 28.2241 15.3632 29.0498C10.3127 30.36 6.48888 32.4834 3.8916 35.4201C1.29431 38.3568 -0.00282984 41.9128 0.000172799 46.088C-0.015367 49.1039 1.01768 52.0245 2.90974 54.3138C4.85094 56.7426 7.8093 58.6472 11.7848 60.0275C15.7603 61.4078 20.6974 62.0972 26.5961 62.0956C30.9475 62.0873 35.29 61.6853 39.5742 60.8945C42.3796 60.4167 45.1402 59.6896 47.8255 58.7212C47.9539 58.9292 48.0912 59.1325 48.2376 59.3288C49.5708 61.125 51.4767 62.0232 53.9554 62.0232C56.901 62.0232 59.3331 61.0651 61.2518 59.1488C63.1705 57.2326 64.6906 54.757 65.8121 51.7222C66.9336 48.6889 68.0791 44.8183 69.2486 40.1103H69.3837C69.2441 41.5669 69.1743 43.096 69.1743 44.6975C69.1723 47.2883 69.3129 49.8771 69.5954 52.4513C69.8747 54.9985 70.2252 57.0004 70.6471 58.4571C71.0209 59.719 71.442 60.6405 71.9104 61.2216C72.3788 61.8027 73.1295 62.0941 74.1624 62.0956C75.0603 62.1222 75.9436 61.8549 76.6869 61.3315C77.3895 60.822 77.9976 59.8398 78.511 58.3847L79.7045 55.113C80.9657 51.522 82.1112 48.4155 83.1411 45.7935C84.0773 43.3618 85.1751 41.0006 86.4267 38.7268H86.5686C85.8179 43.5314 85.4426 47.5353 85.4426 50.7384C85.4426 54.426 85.9808 57.2404 87.0573 59.1815C88.1337 61.1227 89.9113 62.0941 92.39 62.0956C94.8197 62.0976 97.1794 61.2514 99.0896 59.6933C100.387 58.6599 101.613 57.533 102.758 56.3212C103.677 57.7713 104.862 59.019 106.246 59.9924C108.233 61.3946 110.63 62.0956 113.437 62.0956C116.756 62.0956 119.726 60.8703 122.346 58.4197C124.966 55.9691 126.719 52.7053 127.606 48.6282C129.472 48.5544 131.33 48.3238 133.16 47.9388C133.106 49.1072 133.079 50.3076 133.079 51.5399C133.079 54.5997 133.754 57.1235 135.106 59.1114C136.457 61.0993 138.166 62.0941 140.233 62.0956C142.152 62.0956 143.894 61.1733 145.46 59.3288C147.026 57.4842 148.184 54.9853 148.933 51.8321C148.933 54.063 149.319 55.871 150.09 57.2559C150.862 58.6409 151.926 59.4534 153.281 59.6933V59.8405C149.307 62.3161 146.23 64.5237 144.048 66.4633C141.867 68.4029 140.37 70.1626 139.558 71.7423C138.752 73.2713 138.33 74.9863 138.33 76.7292C138.33 78.7669 138.974 80.4651 140.26 81.8236C141.547 83.1821 143.172 83.8621 145.136 83.8637C148.081 83.8637 150.701 82.6953 152.993 80.3584C155.286 78.0215 157.016 74.672 158.184 70.3098C158.745 68.1739 159.33 65.6508 159.938 62.7406C163.658 60.4411 166.563 58.5786 168.653 57.1531C168.923 57.8238 169.259 58.4636 169.655 59.0624C170.987 61.0799 172.705 62.0871 174.81 62.084C176.634 62.084 178.341 61.1983 179.931 59.4269C181.521 57.6556 182.714 55.12 183.51 51.8204C183.51 55.0702 184.035 57.594 185.086 59.3919C186.137 61.1897 187.788 62.0871 190.04 62.084C192.851 62.1234 195.604 61.2588 197.922 59.6092C198.296 59.3428 198.668 59.0647 199.033 58.7703C199.235 59.0153 199.449 59.2493 199.674 59.4713C201.476 61.2162 203.826 62.0894 206.725 62.091C213.46 62.091 219.002 57.8448 223.352 49.3526H223.491C223.224 50.8655 223.083 52.3995 223.07 53.9376C223.07 56.5596 223.585 58.574 224.615 59.9808C225.645 61.3876 227.118 62.0886 229.033 62.084C231.231 62.084 233.453 61.3564 235.699 59.9013C237.945 58.4462 240.284 56.2379 242.714 53.2762C243.058 52.8574 243.335 52.384 243.534 51.8741C243.747 51.319 243.891 50.7378 243.962 50.1448C244.021 49.6863 244.05 49.224 244.047 48.7614C244.056 47.755 243.885 46.9604 243.534 46.3778ZM117.891 52.4934C116.792 53.7553 115.495 54.3863 113.998 54.3863C112.647 54.3863 111.466 53.6852 110.455 52.2831C109.445 50.8809 108.942 48.8424 108.947 46.1674C108.947 42.7712 109.566 40.1383 110.804 38.2688C112.043 36.3993 113.598 35.4645 115.471 35.4645H115.822C115.681 36.2349 115.61 37.0173 115.61 37.8014C115.605 39.6175 116.001 41.4106 116.768 43.043C117.514 44.6624 118.665 46.0446 120.101 47.0461C119.727 49.4173 118.99 51.233 117.891 52.4934ZM150.126 74.2614C149.003 76.106 147.837 77.0275 146.627 77.026C145.645 77.026 145.154 76.4924 145.154 75.4252C145.154 72.7565 147.586 69.9172 152.45 66.9073C152.021 69.9655 151.246 72.4169 150.126 74.2614ZM221.618 43.6132C220.946 43.7052 220.269 43.7536 219.591 43.7581C218.984 43.7759 218.38 43.6621 217.819 43.4239C217.257 43.1857 216.749 42.8283 216.328 42.3747C215.901 41.9238 215.567 41.3886 215.344 40.8009C215.121 40.2131 215.015 39.5849 215.031 38.9535C215.031 37.2538 215.545 35.9436 216.573 35.0229C217.602 34.1021 219.052 33.641 220.924 33.6394C222.45 33.6764 223.962 33.9465 225.412 34.441C224.496 37.6415 223.223 40.7198 221.618 43.6132Z" fill="var(--fill-1, white)"/>
</g>
<defs>
<linearGradient id="paint0_linear_0_14" x1="122.024" y1="0.437052" x2="122.024" y2="83.8637" gradientUnits="userSpaceOnUse">
<stop stop-color="#26145D"/>
<stop offset="1" stop-color="#2C127A"/>
</linearGradient>
</defs>
</svg>
