<svg width="193" height="66" viewBox="0 0 193 66" fill="none" xmlns="http://www.w3.org/2000/svg">
<path d="M192.178 18.9453C192.104 19.9814 191.945 21.0092 191.703 22.0174C191.481 22.9637 191.215 23.8212 190.972 24.5552C190.381 26.2885 189.687 27.9818 188.893 29.6253C188.202 31.0878 187.403 32.6516 186.45 34.4082C185.657 35.8721 184.802 37.3886 183.841 39.044L181.166 43.5896C180.321 45.0354 179.427 46.5784 178.61 48.1297C178.166 48.9789 177.808 49.6921 177.497 50.4094C177.335 50.775 177.191 51.1492 177.067 51.5306C176.955 51.8571 176.877 52.1953 176.837 52.5393L176.756 53.4287C176.754 53.4558 176.745 53.4817 176.73 53.5037C176.7 53.6008 176.642 53.6856 176.563 53.7458C176.483 53.806 176.388 53.8383 176.29 53.8381H176.266C176.245 53.8422 176.223 53.8422 176.203 53.8381L175.419 53.6396C174.436 53.3899 173.535 53.1082 172.62 52.8182C171.684 52.5157 170.759 52.1883 169.9 51.8788C169.339 51.6693 168.78 51.4626 168.222 51.2614C167.143 50.8673 165.799 50.3775 164.539 49.8627C162.458 49.0163 160.795 48.2712 159.291 47.5178C158.303 47.0141 157.497 46.5701 156.75 46.1177C156.032 45.6848 155.424 45.2852 154.878 44.8786C154.692 44.7408 154.513 44.6021 154.343 44.4624L154.314 44.4388C154.28 44.4121 154.258 44.373 154.252 44.3297C154.246 44.2864 154.257 44.2424 154.281 44.2071L154.63 43.7062C154.655 43.6713 154.692 43.6475 154.733 43.6398C154.774 43.632 154.816 43.6409 154.851 43.6645L154.882 43.684L155.135 43.8519C156.435 44.7066 157.935 45.4864 159.826 46.2953C161.338 46.9516 163.009 47.5899 165.089 48.3017L165.116 48.3101C166.77 48.8651 168.646 49.4867 170.465 49.964C171.389 50.2166 172.32 50.4524 173.195 50.6717C173.73 50.8104 174.168 50.9089 174.555 50.9964C174.596 51.0057 174.639 50.9984 174.675 50.9759C174.71 50.9535 174.737 50.9176 174.748 50.8756L174.764 50.8146C174.892 50.3482 175.044 49.8888 175.217 49.4381C175.51 48.6611 175.856 47.8577 176.307 46.91C177.085 45.2949 177.912 43.7422 178.768 42.1604L181.29 37.5232C182.184 35.8873 182.986 34.4096 183.762 32.9027C185.7 29.1466 186.971 26.2425 187.897 23.4757C188.493 21.6483 188.821 20.0998 188.899 18.7427C188.92 18.3731 188.92 18.0024 188.899 17.6327C188.861 17.1596 188.821 16.7821 188.765 16.4505C188.651 15.663 188.476 14.8862 188.242 14.1278C187.781 12.6201 187.08 11.2035 186.166 9.93735C185.26 8.69233 184.128 7.6431 182.833 6.84867C181.543 6.06581 180.107 5.57542 178.621 5.40978C177.108 5.25252 175.579 5.39041 174.115 5.81633C173.366 6.03301 172.635 6.31141 171.928 6.64886C171.622 6.78761 171.306 6.96106 171.027 7.10953L170.865 7.19416H170.857C170.782 7.23995 170.695 7.28991 170.608 7.34124L170.54 7.38148C170.299 7.52024 170.072 7.65899 169.858 7.79775C169.192 8.22814 168.56 8.714 167.97 9.25052C167.386 9.77431 166.849 10.351 166.365 10.9739C165.386 12.2161 164.621 13.6243 164.103 15.1365C163.843 15.8958 163.646 16.6765 163.513 17.4704C163.445 17.8658 163.394 18.2668 163.362 18.665C163.348 18.8649 163.337 19.0591 163.329 19.2589C163.321 19.4587 163.329 19.6627 163.329 19.7973L163.424 22.0451V22.0534C163.427 22.0774 163.427 22.1016 163.424 22.1256C163.424 22.2172 163.396 22.3064 163.345 22.3813C163.295 22.4563 163.223 22.5133 163.14 22.5447C163.057 22.5761 162.967 22.5805 162.882 22.5572C162.796 22.5338 162.72 22.4839 162.663 22.4142L161.086 20.9212C161.015 20.8546 160.9 20.7533 160.792 20.6645C160.684 20.5757 160.566 20.4813 160.451 20.387C160.227 20.2149 159.987 20.0415 159.737 19.8722C159.243 19.5418 158.733 19.2393 158.208 18.9661C157.168 18.4206 156.064 18.0199 154.923 17.7742C153.792 17.5327 152.631 17.4816 151.484 17.623C150.327 17.7715 149.199 18.1048 148.14 18.6109C147.603 18.8642 147.085 19.1577 146.589 19.4892C146.09 19.8135 145.619 20.1817 145.18 20.5896C144.312 21.3933 143.598 22.3609 143.078 23.441C142.556 24.5468 142.23 25.7411 142.116 26.9668C141.987 28.1994 142.047 29.4455 142.292 30.659L142.3 30.702L142.308 30.7395C142.317 30.7818 142.31 30.826 142.288 30.863C142.266 30.8999 142.232 30.9268 142.191 30.9379L141.614 31.0975C141.573 31.1088 141.53 31.1036 141.494 31.0829C141.457 31.0623 141.43 31.0277 141.417 30.9865L141.406 30.9518C141.366 30.8241 141.329 30.6937 141.294 30.5633C140.978 29.3665 140.833 28.1281 140.863 26.8877C140.889 25.4839 141.165 24.0971 141.676 22.7972C142.201 21.473 142.974 20.27 143.95 19.2575C144.435 18.7499 144.96 18.2857 145.52 17.87C146.069 17.4562 146.646 17.0851 147.248 16.7599C148.474 16.0768 149.799 15.608 151.172 15.3724C152.553 15.1348 153.962 15.131 155.345 15.3613C156.714 15.5875 158.048 16.0019 159.311 16.5934C159.713 16.778 160.114 16.9861 160.534 17.2234C160.557 17.237 160.583 17.2446 160.609 17.2455C160.636 17.2463 160.662 17.2403 160.686 17.2281C160.71 17.2159 160.73 17.1979 160.746 17.1755C160.761 17.1531 160.771 17.1272 160.774 17.0999C160.774 17.0763 160.774 17.0541 160.784 17.0305C160.915 16.074 161.125 15.1308 161.41 14.211C162.272 11.4049 163.842 8.8889 165.957 6.92359C166.648 6.26958 167.388 5.67469 168.172 5.14475C168.454 4.94078 168.772 4.7493 169.028 4.58973L169.152 4.51481L169.347 4.39409L169.456 4.33443C169.839 4.12074 170.214 3.91816 170.595 3.72251C171.446 3.2979 172.328 2.94434 173.232 2.6652C175.085 2.08081 177.03 1.87858 178.958 2.06994C180.907 2.27251 182.793 2.90249 184.491 3.91816C187.746 5.86073 190.269 9.20056 191.416 13.0968C191.695 14.0276 191.902 14.9802 192.035 15.9454C192.095 16.3617 192.142 16.8224 192.182 17.394C192.211 17.9107 192.21 18.4288 192.178 18.9453Z" fill="#F47BB4"/>
<path d="M162.356 40.1959C162.262 40.0182 162.123 39.8704 161.954 39.768C161.786 39.6657 161.593 39.6127 161.398 39.6147C161.151 39.6151 160.907 39.677 160.687 39.7952C160.468 39.9133 160.278 40.0844 160.136 40.294C158.634 42.1697 157.465 43.4799 156.627 44.2246C155.789 44.9693 155.072 45.3417 154.476 45.3417C154.28 45.3516 154.085 45.31 153.909 45.2206C153.733 45.1313 153.582 44.9971 153.47 44.8307C153.236 44.491 153.12 44.0138 153.12 43.3989C153.128 41.9991 153.254 40.6027 153.494 39.2253C153.743 37.7369 154.101 35.9578 154.569 33.8878C155.069 31.8168 155.35 30.3768 155.411 29.5677C155.45 29.3385 155.429 29.1026 155.35 28.8849C155.271 28.6671 155.136 28.4757 154.96 28.3307C154.602 28.0191 154.111 27.8633 153.488 27.8633C152.397 27.8633 151.68 28.1059 151.336 28.5909C150.32 28.2733 149.28 28.0435 148.227 27.9039C147.852 27.854 147.476 27.8197 147.107 27.7964C146.784 27.7761 146.464 27.7668 146.145 27.7668C143.743 27.7668 141.872 28.4216 140.533 29.7313C139.194 31.041 138.523 32.8934 138.521 35.2884C138.521 37.3594 139.074 39.0098 140.181 40.2395C141.288 41.4692 142.777 42.0835 144.648 42.0825H145.248C144.407 43.1336 143.413 44.0424 142.303 44.7761C141.302 45.4076 140.32 45.7234 139.356 45.7234C138.999 45.7298 138.648 45.6391 138.336 45.4603C138.024 45.2815 137.763 45.0209 137.578 44.7045C137.294 44.2522 137.102 43.7442 137.014 43.212C136.952 42.8557 136.922 42.4943 136.924 42.1323C136.934 41.7424 136.965 41.3534 137.017 40.967C137.029 40.9063 137.039 40.8471 137.05 40.7941C137.083 40.6273 137.104 40.458 137.111 40.2878C137.111 39.353 136.55 38.8856 135.427 38.8856C134.15 38.8856 133.144 39.3712 132.411 40.3423C131.726 41.249 131.361 42.4657 131.316 43.9925C131.259 44.0486 131.204 44.1 131.148 44.1483C130.29 44.9428 129.55 45.3396 128.926 45.3386C128.735 45.3429 128.545 45.2986 128.374 45.2096C128.203 45.1205 128.055 44.9893 127.944 44.8275C127.695 44.4879 127.57 44.0107 127.57 43.3958C127.57 42.4258 128.007 39.8697 128.88 35.7277C129.658 32.1061 130.048 29.8902 130.049 29.0801C130.049 28.594 129.909 28.2622 129.629 28.0846C129.348 27.907 128.848 27.8182 128.127 27.8182C127.098 27.8182 126.327 28.0285 125.812 28.4491C125.298 28.8698 124.916 29.5651 124.667 30.5352C123.917 33.4163 123.145 35.843 122.352 37.8153C121.558 39.7877 120.807 41.2599 120.1 42.2321C119.399 43.2021 118.815 43.6872 118.346 43.6872C118.197 43.6986 118.047 43.666 117.914 43.5933C117.781 43.5206 117.671 43.4106 117.596 43.2759C117.439 43.0006 117.361 42.5234 117.361 41.8441C117.361 40.712 117.673 38.4468 118.297 35.0485C118.485 34.0774 118.735 32.9936 119.047 31.7971C119.391 30.3088 119.562 29.4353 119.562 29.1767C119.562 28.7238 119.43 28.3842 119.164 28.1578C118.899 27.9314 118.424 27.8182 117.738 27.8182C116.522 27.8182 115.633 28.0285 115.072 28.4491C114.51 28.8698 114.074 29.5651 113.763 30.5352C113.094 32.6334 112.586 34.7833 112.243 36.9647C111.961 38.8638 111.807 40.7811 111.784 42.7026C110.309 43.8274 108.685 44.9641 106.912 46.1128C106.942 45.4336 106.903 44.9808 106.795 44.7543C106.755 44.6532 106.687 44.5668 106.6 44.5063C106.512 44.4457 106.409 44.4138 106.304 44.4147C106.147 44.4146 105.99 44.4307 105.836 44.463C105.697 44.4935 105.557 44.5097 105.415 44.5113C105.278 44.5198 105.141 44.4906 105.018 44.4266C104.895 44.3626 104.79 44.2661 104.714 44.1467C104.564 43.9053 104.48 43.4768 104.48 42.8615C104.48 42.2461 104.62 41.2272 104.9 39.8033C105.181 38.3793 105.501 36.9398 105.836 35.4847C106.614 31.9908 107.004 29.8554 107.005 29.0785C107.005 28.5925 106.865 28.2606 106.585 28.083C106.304 27.9054 105.804 27.8166 105.084 27.8166C104.083 27.8166 103.319 28.0186 102.791 28.4226C102.264 28.8267 101.874 29.5303 101.623 30.5336C100.622 34.3848 99.5307 37.5396 98.3486 39.998C97.1666 42.4564 96.1532 43.6856 95.3085 43.6856C95.1561 43.696 95.0041 43.6603 94.8709 43.5829C94.7376 43.5055 94.6289 43.3896 94.5578 43.2494C94.4017 42.9586 94.3236 42.4912 94.3236 41.8473C94.3236 40.7474 94.6354 38.4821 95.2589 35.0516C95.4471 34.0805 95.6973 32.9967 96.0096 31.8002C96.3539 30.3119 96.5255 29.4384 96.5245 29.1798C96.5245 28.6958 96.3844 28.3479 96.1042 28.136C95.8239 27.9241 95.356 27.8202 94.7004 27.8244C93.5154 27.8244 92.6346 28.0264 92.0581 28.4304C91.4816 28.8345 91.0372 29.5381 90.7249 30.5414C90.162 32.3213 89.7057 34.1356 89.3587 35.9739C88.0707 36.2917 86.7605 36.5037 85.4403 36.608C85.1911 34.1153 84.3403 32.0204 82.888 30.3233C81.4358 28.6262 79.5291 27.7761 77.168 27.773C75.2894 27.7565 73.4487 28.3223 71.8819 29.3979C70.2925 30.4822 69.0454 31.9882 68.1406 33.9159C67.2358 35.8435 66.7854 38.0355 66.7894 40.4919C66.7867 41.3286 66.8642 42.1636 67.0206 42.9845C65.7885 44.7169 64.7276 45.5831 63.8378 45.5831C63.1512 45.5831 62.6838 45.2596 62.4355 44.6126C62.1873 43.9655 62.0627 42.7192 62.0617 40.8736C62.0617 39.7082 62.1238 37.9286 62.2479 35.5346C62.2794 34.9207 62.3109 34.2477 62.3425 33.5202C62.374 32.7926 62.389 32.0573 62.389 31.3126C62.389 29.9525 62.1848 29.024 61.781 28.5208C61.3771 28.0176 60.6114 27.773 59.4885 27.773C58.7799 27.7631 58.0804 27.9383 57.4542 28.2824C56.782 28.6738 56.1739 29.1733 55.6526 29.7625C54.998 30.5071 54.1092 32.0765 52.9862 34.4705C51.8633 36.8645 51.037 38.9833 50.5076 40.8268H50.4145C50.1953 38.3684 50.0862 34.7935 50.0872 30.1021C50.0872 29.293 49.7989 28.7103 49.2224 28.3541C48.6459 27.9979 47.9208 27.8202 47.047 27.8213C46.0181 27.8213 45.1999 28.0555 44.5923 28.5239C43.9848 28.9923 43.5254 29.7287 43.2141 30.733C42.2783 33.8717 41.2804 36.9455 40.2205 39.9544C39.4398 42.1864 38.8318 43.6342 38.3964 44.2979C37.961 44.9615 37.5246 45.2929 37.0872 45.2918C36.7434 45.2918 36.5258 44.9974 36.4342 44.4038C36.3985 44.1516 36.3819 43.8969 36.3846 43.642C36.3846 43.3787 36.4056 43.0422 36.4462 42.6293C36.5062 42.0269 36.6108 41.2646 36.76 40.3423C36.7943 40.2162 36.81 40.0854 36.8065 39.9544C36.8065 39.0799 36.1829 38.6431 34.9358 38.6442C33.6247 38.6442 32.6113 39.1858 31.8957 40.2691C31.4191 41.0021 31.0987 41.8323 30.9559 42.7041C29.5867 43.1497 28.0853 43.5516 26.4519 43.9099C23.7549 44.5194 21.0043 44.8363 18.2442 44.8556C14.3157 44.8556 11.4472 44.3462 9.6386 43.3273C7.83001 42.3084 6.92421 40.7957 6.92121 38.789C6.93038 37.5637 7.33353 36.3767 8.06671 35.4161C8.83139 34.3651 10.063 33.4994 11.7615 32.8191C13.46 32.1388 15.6038 31.767 18.1931 31.7036C20.0638 31.6704 20.9991 30.5866 20.9991 28.4522C20.9991 27.773 20.8585 27.2874 20.5772 26.9956C20.296 26.7037 19.813 26.5422 19.1284 26.5111C16.4161 26.4134 14.4593 25.8713 13.2583 24.8846C12.0572 23.8979 11.4567 22.6443 11.4567 21.1238C11.4567 19.1504 12.2519 17.5811 13.8423 16.4157C15.4327 15.2504 17.5526 14.6683 20.2019 14.6693C22.1666 14.6693 23.5679 15.0328 24.4056 15.7599C24.8127 16.1 25.1384 16.5332 25.3575 17.0256C25.5765 17.518 25.6828 18.0563 25.6682 18.5984C25.6336 19.3297 25.5554 20.0582 25.434 20.7795C25.2856 21.3655 25.2069 21.9683 25.1998 22.5742C25.1998 23.3843 25.45 23.9914 25.9504 24.3954C26.4509 24.7994 27.137 25.0014 28.0088 25.0014C29.2549 25.0014 30.2132 24.411 30.8838 23.2301C31.5544 22.0492 31.8897 20.5042 31.8897 18.5953C31.8897 15.8461 30.9233 13.6053 28.9906 11.8728C27.0579 10.1404 24.1554 9.27527 20.283 9.27735C17.4154 9.27735 14.7811 9.76238 12.38 10.7324C9.97889 11.7025 8.06922 13.0859 6.65097 14.8827C5.25665 16.6185 4.50636 18.8144 4.5356 21.0739C4.52353 22.7521 5.04134 24.3882 6.0099 25.7321C6.99177 27.1228 8.40251 28.0934 10.2421 28.6439C6.87516 29.5173 4.32592 30.933 2.5944 32.8908C0.862874 34.8485 -0.00188656 37.2192 0.000115199 40.0027C-0.0102446 42.0133 0.67845 43.9603 1.93982 45.4866C3.23396 47.1058 5.2062 48.3755 7.85653 49.2957C10.5069 50.2159 13.7983 50.6755 17.7307 50.6744C20.6317 50.6689 23.5267 50.4009 26.3828 49.8737C28.2531 49.5551 30.0934 49.0704 31.8837 48.4248C31.9692 48.5634 32.0608 48.699 32.1584 48.8299C33.0472 50.0274 34.3178 50.6261 35.9703 50.6261C37.934 50.6261 39.5554 49.9874 40.8345 48.7099C42.1137 47.4324 43.1271 45.782 43.8747 43.7588C44.6224 41.7366 45.386 39.1562 46.1657 36.0175H46.2558C46.1627 36.9886 46.1162 38.008 46.1162 39.0757C46.1149 40.8029 46.2086 42.5288 46.3969 44.2449C46.5831 45.943 46.8168 47.2776 47.0981 48.2487C47.3473 49.09 47.628 49.7044 47.9403 50.0918C48.2526 50.4792 48.753 50.6734 49.4416 50.6744C50.0402 50.6922 50.629 50.5139 51.1246 50.165C51.593 49.8254 51.9984 49.1705 52.3407 48.2005L53.1364 46.0194C53.9771 43.6254 54.7408 41.5544 55.4274 39.8064C56.0515 38.1852 56.7834 36.6111 57.6178 35.0952H57.7124C57.212 38.2983 56.9617 40.9675 56.9617 43.1029C56.9617 45.5613 57.3205 47.4376 58.0382 48.7317C58.7558 50.0258 59.9409 50.6734 61.5933 50.6744C63.2131 50.6757 64.7863 50.1116 66.0597 49.0729C66.9247 48.3839 67.7419 47.6327 68.5054 46.8248C69.1177 47.7916 69.908 48.6233 70.8309 49.2723C72.1551 50.2071 73.753 50.6744 75.6246 50.6744C77.8376 50.6744 79.8173 49.8576 81.5639 48.2238C83.3104 46.5901 84.4794 44.4142 85.071 41.6961C86.315 41.6469 87.5531 41.4932 88.7732 41.2365C88.7372 42.0155 88.7192 42.8158 88.7192 43.6373C88.7192 45.6771 89.1696 47.3597 90.0704 48.685C90.9712 50.0102 92.1107 50.6734 93.4889 50.6744C94.768 50.6744 95.9295 50.0596 96.9734 48.8299C98.0173 47.6001 98.789 45.9342 99.2885 43.832C99.2885 45.3193 99.5457 46.5246 100.06 47.448C100.575 48.3713 101.284 48.9129 102.188 49.0729V49.171C99.5382 50.8214 97.4864 52.2931 96.0321 53.5862C94.5778 54.8793 93.5799 56.0524 93.0385 57.1055C92.5011 58.1249 92.2197 59.2682 92.2203 60.4301C92.2203 61.7886 92.6491 62.9207 93.5069 63.8264C94.3646 64.7321 95.4481 65.1854 96.7572 65.1865C98.721 65.1865 100.467 64.4075 101.995 62.8496C103.524 61.2917 104.677 59.0586 105.456 56.1505C105.83 54.7266 106.22 53.0446 106.625 51.1044C109.106 49.5714 111.042 48.3298 112.436 47.3794C112.615 47.8265 112.839 48.2531 113.104 48.6523C113.991 49.9973 115.137 50.6687 116.54 50.6666C117.756 50.6666 118.894 50.0762 119.954 48.8953C121.014 47.7144 121.809 46.024 122.34 43.8243C122.34 45.9908 122.69 47.6734 123.391 48.8719C124.091 50.0705 125.192 50.6687 126.694 50.6666C128.567 50.6929 130.403 50.1166 131.948 49.0168C132.197 48.8392 132.445 48.6538 132.688 48.4575C132.823 48.6209 132.966 48.7769 133.116 48.9249C134.317 50.0881 135.884 50.6703 137.817 50.6713C142.307 50.6713 146.002 47.8406 148.901 42.1791H148.994C148.816 43.1876 148.722 44.2104 148.713 45.2357C148.713 46.9837 149.057 48.3266 149.743 49.2645C150.43 50.2024 151.412 50.6698 152.689 50.6666C154.154 50.6666 155.636 50.1816 157.133 49.2115C158.63 48.2415 160.189 46.7692 161.809 44.7948C162.039 44.5156 162.223 44.2 162.356 43.8601C162.498 43.49 162.594 43.1026 162.641 42.7072C162.681 42.4015 162.7 42.0934 162.698 41.7849C162.704 41.114 162.59 40.5843 162.356 40.1959ZM78.5943 44.2729C77.8616 45.1142 76.9964 45.5348 75.9985 45.5348C75.0977 45.5348 74.3105 45.0675 73.6369 44.1327C72.9633 43.198 72.628 41.8389 72.631 40.0556C72.631 37.7915 73.0439 36.0362 73.8696 34.7899C74.6953 33.5435 75.7322 32.9204 76.9803 32.9204H77.2146C77.1205 33.4339 77.0732 33.9555 77.0734 34.4783C77.0698 35.689 77.3338 36.8844 77.8451 37.9727C78.3428 39.0522 79.11 39.9738 80.0671 40.6414C79.8178 42.2222 79.3269 43.4327 78.5943 44.2729ZM100.084 58.785C99.3355 60.0147 98.5578 60.629 97.7511 60.628C97.0965 60.628 96.7693 60.2723 96.7693 59.5608C96.7693 57.7817 98.3907 55.8888 101.634 53.8822C101.347 55.921 100.831 57.5553 100.084 58.785ZM147.745 38.3528C147.297 38.4141 146.846 38.4464 146.394 38.4494C145.989 38.4613 145.587 38.3854 145.212 38.2266C144.838 38.0678 144.499 37.8295 144.219 37.5271C143.934 37.2266 143.711 36.8698 143.563 36.4779C143.414 36.0861 143.343 35.6673 143.354 35.2463C143.354 34.1132 143.697 33.2397 144.382 32.6259C145.068 32.0121 146.035 31.7047 147.283 31.7036C148.3 31.7283 149.308 31.9083 150.275 32.238C149.664 34.3716 148.815 36.4239 147.745 38.3528Z" fill="url(#paint0_linear_4246_4020)"/>
<path d="M162.356 40.1959C162.262 40.0182 162.123 39.8704 161.954 39.768C161.786 39.6657 161.593 39.6127 161.398 39.6147C161.151 39.6151 160.907 39.677 160.687 39.7952C160.468 39.9133 160.278 40.0844 160.136 40.294C158.634 42.1697 157.465 43.4799 156.627 44.2246C155.789 44.9693 155.072 45.3417 154.476 45.3417C154.28 45.3516 154.085 45.31 153.909 45.2206C153.733 45.1313 153.582 44.9971 153.47 44.8307C153.236 44.491 153.12 44.0138 153.12 43.3989C153.128 41.9991 153.254 40.6027 153.494 39.2253C153.743 37.7369 154.101 35.9578 154.569 33.8878C155.069 31.8168 155.35 30.3768 155.411 29.5677C155.45 29.3385 155.429 29.1026 155.35 28.8849C155.271 28.6671 155.136 28.4757 154.96 28.3307C154.602 28.0191 154.111 27.8633 153.488 27.8633C152.397 27.8633 151.68 28.1059 151.336 28.5909C150.32 28.2733 149.28 28.0435 148.227 27.9039C147.852 27.854 147.476 27.8197 147.107 27.7964C146.784 27.7761 146.464 27.7668 146.145 27.7668C143.743 27.7668 141.872 28.4216 140.533 29.7313C139.194 31.041 138.523 32.8934 138.521 35.2884C138.521 37.3594 139.074 39.0098 140.181 40.2395C141.288 41.4692 142.777 42.0835 144.648 42.0825H145.248C144.407 43.1336 143.413 44.0424 142.303 44.7761C141.302 45.4076 140.32 45.7234 139.356 45.7234C138.999 45.7298 138.648 45.6391 138.336 45.4603C138.024 45.2815 137.763 45.0209 137.578 44.7045C137.294 44.2522 137.102 43.7442 137.014 43.212C136.952 42.8557 136.922 42.4943 136.924 42.1323C136.934 41.7424 136.965 41.3534 137.017 40.967C137.029 40.9063 137.039 40.8471 137.05 40.7941C137.083 40.6273 137.104 40.458 137.111 40.2878C137.111 39.353 136.55 38.8856 135.427 38.8856C134.15 38.8856 133.144 39.3712 132.411 40.3423C131.726 41.249 131.361 42.4657 131.316 43.9925C131.259 44.0486 131.204 44.1 131.148 44.1483C130.29 44.9428 129.55 45.3396 128.926 45.3386C128.735 45.3429 128.545 45.2986 128.374 45.2096C128.203 45.1205 128.055 44.9893 127.944 44.8275C127.695 44.4879 127.57 44.0107 127.57 43.3958C127.57 42.4258 128.007 39.8697 128.88 35.7277C129.658 32.1061 130.048 29.8902 130.049 29.0801C130.049 28.594 129.909 28.2622 129.629 28.0846C129.348 27.907 128.848 27.8182 128.127 27.8182C127.098 27.8182 126.327 28.0285 125.812 28.4491C125.298 28.8698 124.916 29.5651 124.667 30.5352C123.917 33.4163 123.145 35.843 122.352 37.8153C121.558 39.7877 120.807 41.2599 120.1 42.2321C119.399 43.2021 118.815 43.6872 118.346 43.6872C118.197 43.6986 118.047 43.666 117.914 43.5933C117.781 43.5206 117.671 43.4106 117.596 43.2759C117.439 43.0006 117.361 42.5234 117.361 41.8441C117.361 40.712 117.673 38.4468 118.297 35.0485C118.485 34.0774 118.735 32.9936 119.047 31.7971C119.391 30.3088 119.562 29.4353 119.562 29.1767C119.562 28.7238 119.43 28.3842 119.164 28.1578C118.899 27.9314 118.424 27.8182 117.738 27.8182C116.522 27.8182 115.633 28.0285 115.072 28.4491C114.51 28.8698 114.074 29.5651 113.763 30.5352C113.094 32.6334 112.586 34.7833 112.243 36.9647C111.961 38.8638 111.807 40.7811 111.784 42.7026C110.309 43.8274 108.685 44.9641 106.912 46.1128C106.942 45.4336 106.903 44.9808 106.795 44.7543C106.755 44.6532 106.687 44.5668 106.6 44.5063C106.512 44.4457 106.409 44.4138 106.304 44.4147C106.147 44.4146 105.99 44.4307 105.836 44.463C105.697 44.4935 105.557 44.5097 105.415 44.5113C105.278 44.5198 105.141 44.4906 105.018 44.4266C104.895 44.3626 104.79 44.2661 104.714 44.1467C104.564 43.9053 104.48 43.4768 104.48 42.8615C104.48 42.2461 104.62 41.2272 104.9 39.8033C105.181 38.3793 105.501 36.9398 105.836 35.4847C106.614 31.9908 107.004 29.8554 107.005 29.0785C107.005 28.5925 106.865 28.2606 106.585 28.083C106.304 27.9054 105.804 27.8166 105.084 27.8166C104.083 27.8166 103.319 28.0186 102.791 28.4226C102.264 28.8267 101.874 29.5303 101.623 30.5336C100.622 34.3848 99.5307 37.5396 98.3486 39.998C97.1666 42.4564 96.1532 43.6856 95.3085 43.6856C95.1561 43.696 95.0041 43.6603 94.8709 43.5829C94.7376 43.5055 94.6289 43.3896 94.5578 43.2494C94.4017 42.9586 94.3236 42.4912 94.3236 41.8473C94.3236 40.7474 94.6354 38.4821 95.2589 35.0516C95.4471 34.0805 95.6973 32.9967 96.0096 31.8002C96.3539 30.3119 96.5255 29.4384 96.5245 29.1798C96.5245 28.6958 96.3844 28.3479 96.1042 28.136C95.8239 27.9241 95.356 27.8202 94.7004 27.8244C93.5154 27.8244 92.6346 28.0264 92.0581 28.4304C91.4816 28.8345 91.0372 29.5381 90.7249 30.5414C90.162 32.3213 89.7057 34.1356 89.3587 35.9739C88.0707 36.2917 86.7605 36.5037 85.4403 36.608C85.1911 34.1153 84.3403 32.0204 82.888 30.3233C81.4358 28.6262 79.5291 27.7761 77.168 27.773C75.2894 27.7565 73.4487 28.3223 71.8819 29.3979C70.2925 30.4822 69.0454 31.9882 68.1406 33.9159C67.2358 35.8435 66.7854 38.0355 66.7894 40.4919C66.7867 41.3286 66.8642 42.1636 67.0206 42.9845C65.7885 44.7169 64.7276 45.5831 63.8378 45.5831C63.1512 45.5831 62.6838 45.2596 62.4355 44.6126C62.1873 43.9655 62.0627 42.7192 62.0617 40.8736C62.0617 39.7082 62.1238 37.9286 62.2479 35.5346C62.2794 34.9207 62.3109 34.2477 62.3425 33.5202C62.374 32.7926 62.389 32.0573 62.389 31.3126C62.389 29.9525 62.1848 29.024 61.781 28.5208C61.3771 28.0176 60.6114 27.773 59.4885 27.773C58.7799 27.7631 58.0804 27.9383 57.4542 28.2824C56.782 28.6738 56.1739 29.1733 55.6526 29.7625C54.998 30.5071 54.1092 32.0765 52.9862 34.4705C51.8633 36.8645 51.037 38.9833 50.5076 40.8268H50.4145C50.1953 38.3684 50.0862 34.7935 50.0872 30.1021C50.0872 29.293 49.7989 28.7103 49.2224 28.3541C48.6459 27.9979 47.9208 27.8202 47.047 27.8213C46.0181 27.8213 45.1999 28.0555 44.5923 28.5239C43.9848 28.9923 43.5254 29.7287 43.2141 30.733C42.2783 33.8717 41.2804 36.9455 40.2205 39.9544C39.4398 42.1864 38.8318 43.6342 38.3964 44.2979C37.961 44.9615 37.5246 45.2929 37.0872 45.2918C36.7434 45.2918 36.5258 44.9974 36.4342 44.4038C36.3985 44.1516 36.3819 43.8969 36.3846 43.642C36.3846 43.3787 36.4056 43.0422 36.4462 42.6293C36.5062 42.0269 36.6108 41.2646 36.76 40.3423C36.7943 40.2162 36.81 40.0854 36.8065 39.9544C36.8065 39.0799 36.1829 38.6431 34.9358 38.6442C33.6247 38.6442 32.6113 39.1858 31.8957 40.2691C31.4191 41.0021 31.0987 41.8323 30.9559 42.7041C29.5867 43.1497 28.0853 43.5516 26.4519 43.9099C23.7549 44.5194 21.0043 44.8363 18.2442 44.8556C14.3157 44.8556 11.4472 44.3462 9.6386 43.3273C7.83001 42.3084 6.92421 40.7957 6.92121 38.789C6.93038 37.5637 7.33353 36.3767 8.06671 35.4161C8.83139 34.3651 10.063 33.4994 11.7615 32.8191C13.46 32.1388 15.6038 31.767 18.1931 31.7036C20.0638 31.6704 20.9991 30.5866 20.9991 28.4522C20.9991 27.773 20.8585 27.2874 20.5772 26.9956C20.296 26.7037 19.813 26.5422 19.1284 26.5111C16.4161 26.4134 14.4593 25.8713 13.2583 24.8846C12.0572 23.8979 11.4567 22.6443 11.4567 21.1238C11.4567 19.1504 12.2519 17.5811 13.8423 16.4157C15.4327 15.2504 17.5526 14.6683 20.2019 14.6693C22.1666 14.6693 23.5679 15.0328 24.4056 15.7599C24.8127 16.1 25.1384 16.5332 25.3575 17.0256C25.5765 17.518 25.6828 18.0563 25.6682 18.5984C25.6336 19.3297 25.5554 20.0582 25.434 20.7795C25.2856 21.3655 25.2069 21.9683 25.1998 22.5742C25.1998 23.3843 25.45 23.9914 25.9504 24.3954C26.4509 24.7994 27.137 25.0014 28.0088 25.0014C29.2549 25.0014 30.2132 24.411 30.8838 23.2301C31.5544 22.0492 31.8897 20.5042 31.8897 18.5953C31.8897 15.8461 30.9233 13.6053 28.9906 11.8728C27.0579 10.1404 24.1554 9.27527 20.283 9.27735C17.4154 9.27735 14.7811 9.76238 12.38 10.7324C9.97889 11.7025 8.06922 13.0859 6.65097 14.8827C5.25665 16.6185 4.50636 18.8144 4.5356 21.0739C4.52353 22.7521 5.04134 24.3882 6.0099 25.7321C6.99177 27.1228 8.40251 28.0934 10.2421 28.6439C6.87516 29.5173 4.32592 30.933 2.5944 32.8908C0.862874 34.8485 -0.00188656 37.2192 0.000115199 40.0027C-0.0102446 42.0133 0.67845 43.9603 1.93982 45.4866C3.23396 47.1058 5.2062 48.3755 7.85653 49.2957C10.5069 50.2159 13.7983 50.6755 17.7307 50.6744C20.6317 50.6689 23.5267 50.4009 26.3828 49.8737C28.2531 49.5551 30.0934 49.0704 31.8837 48.4248C31.9692 48.5634 32.0608 48.699 32.1584 48.8299C33.0472 50.0274 34.3178 50.6261 35.9703 50.6261C37.934 50.6261 39.5554 49.9874 40.8345 48.7099C42.1137 47.4324 43.1271 45.782 43.8747 43.7588C44.6224 41.7366 45.386 39.1562 46.1657 36.0175H46.2558C46.1627 36.9886 46.1162 38.008 46.1162 39.0757C46.1149 40.8029 46.2086 42.5288 46.3969 44.2449C46.5831 45.943 46.8168 47.2776 47.0981 48.2487C47.3473 49.09 47.628 49.7044 47.9403 50.0918C48.2526 50.4792 48.753 50.6734 49.4416 50.6744C50.0402 50.6922 50.629 50.5139 51.1246 50.165C51.593 49.8254 51.9984 49.1705 52.3407 48.2005L53.1364 46.0194C53.9771 43.6254 54.7408 41.5544 55.4274 39.8064C56.0515 38.1852 56.7834 36.6111 57.6178 35.0952H57.7124C57.212 38.2983 56.9617 40.9675 56.9617 43.1029C56.9617 45.5613 57.3205 47.4376 58.0382 48.7317C58.7558 50.0258 59.9409 50.6734 61.5933 50.6744C63.2131 50.6757 64.7863 50.1116 66.0597 49.0729C66.9247 48.3839 67.7419 47.6327 68.5054 46.8248C69.1177 47.7916 69.908 48.6233 70.8309 49.2723C72.1551 50.2071 73.753 50.6744 75.6246 50.6744C77.8376 50.6744 79.8173 49.8576 81.5639 48.2238C83.3104 46.5901 84.4794 44.4142 85.071 41.6961C86.315 41.6469 87.5531 41.4932 88.7732 41.2365C88.7372 42.0155 88.7192 42.8158 88.7192 43.6373C88.7192 45.6771 89.1696 47.3597 90.0704 48.685C90.9712 50.0102 92.1107 50.6734 93.4889 50.6744C94.768 50.6744 95.9295 50.0596 96.9734 48.8299C98.0173 47.6001 98.789 45.9342 99.2885 43.832C99.2885 45.3193 99.5457 46.5246 100.06 47.448C100.575 48.3713 101.284 48.9129 102.188 49.0729V49.171C99.5382 50.8214 97.4864 52.2931 96.0321 53.5862C94.5778 54.8793 93.5799 56.0524 93.0385 57.1055C92.5011 58.1249 92.2197 59.2682 92.2203 60.4301C92.2203 61.7886 92.6491 62.9207 93.5069 63.8264C94.3646 64.7321 95.4481 65.1854 96.7572 65.1865C98.721 65.1865 100.467 64.4075 101.995 62.8496C103.524 61.2917 104.677 59.0586 105.456 56.1505C105.83 54.7266 106.22 53.0446 106.625 51.1044C109.106 49.5714 111.042 48.3298 112.436 47.3794C112.615 47.8265 112.839 48.2531 113.104 48.6523C113.991 49.9973 115.137 50.6687 116.54 50.6666C117.756 50.6666 118.894 50.0762 119.954 48.8953C121.014 47.7144 121.809 46.024 122.34 43.8243C122.34 45.9908 122.69 47.6734 123.391 48.8719C124.091 50.0705 125.192 50.6687 126.694 50.6666C128.567 50.6929 130.403 50.1166 131.948 49.0168C132.197 48.8392 132.445 48.6538 132.688 48.4575C132.823 48.6209 132.966 48.7769 133.116 48.9249C134.317 50.0881 135.884 50.6703 137.817 50.6713C142.307 50.6713 146.002 47.8406 148.901 42.1791H148.994C148.816 43.1876 148.722 44.2104 148.713 45.2357C148.713 46.9837 149.057 48.3266 149.743 49.2645C150.43 50.2024 151.412 50.6698 152.689 50.6666C154.154 50.6666 155.636 50.1816 157.133 49.2115C158.63 48.2415 160.189 46.7692 161.809 44.7948C162.039 44.5156 162.223 44.2 162.356 43.8601C162.498 43.49 162.594 43.1026 162.641 42.7072C162.681 42.4015 162.7 42.0934 162.698 41.7849C162.704 41.114 162.59 40.5843 162.356 40.1959ZM78.5943 44.2729C77.8616 45.1142 76.9964 45.5348 75.9985 45.5348C75.0977 45.5348 74.3105 45.0675 73.6369 44.1327C72.9633 43.198 72.628 41.8389 72.631 40.0556C72.631 37.7915 73.0439 36.0362 73.8696 34.7899C74.6953 33.5435 75.7322 32.9204 76.9803 32.9204H77.2146C77.1205 33.4339 77.0732 33.9555 77.0734 34.4783C77.0698 35.689 77.3338 36.8844 77.8451 37.9727C78.3428 39.0522 79.11 39.9738 80.0671 40.6414C79.8178 42.2222 79.3269 43.4327 78.5943 44.2729ZM100.084 58.785C99.3355 60.0147 98.5578 60.629 97.7511 60.628C97.0965 60.628 96.7693 60.2723 96.7693 59.5608C96.7693 57.7817 98.3907 55.8888 101.634 53.8822C101.347 55.921 100.831 57.5553 100.084 58.785ZM147.745 38.3528C147.297 38.4141 146.846 38.4464 146.394 38.4494C145.989 38.4613 145.587 38.3854 145.212 38.2266C144.838 38.0678 144.499 37.8295 144.219 37.5271C143.934 37.2266 143.711 36.8698 143.563 36.4779C143.414 36.0861 143.343 35.6673 143.354 35.2463C143.354 34.1132 143.697 33.2397 144.382 32.6259C145.068 32.0121 146.035 31.7047 147.283 31.7036C148.3 31.7283 149.308 31.9083 150.275 32.238C149.664 34.3716 148.815 36.4239 147.745 38.3528Z" fill="#F47BB4"/>
<path d="M162.356 40.1959C162.262 40.0182 162.123 39.8704 161.954 39.768C161.786 39.6657 161.593 39.6127 161.398 39.6147C161.151 39.6151 160.907 39.677 160.687 39.7952C160.468 39.9133 160.278 40.0844 160.136 40.294C158.634 42.1697 157.465 43.4799 156.627 44.2246C155.789 44.9693 155.072 45.3417 154.476 45.3417C154.28 45.3516 154.085 45.31 153.909 45.2206C153.733 45.1313 153.582 44.9971 153.47 44.8307C153.236 44.491 153.12 44.0138 153.12 43.3989C153.128 41.9991 153.254 40.6027 153.494 39.2253C153.743 37.7369 154.101 35.9578 154.569 33.8878C155.069 31.8168 155.35 30.3768 155.411 29.5677C155.45 29.3385 155.429 29.1026 155.35 28.8849C155.271 28.6671 155.136 28.4757 154.96 28.3307C154.602 28.0191 154.111 27.8633 153.488 27.8633C152.397 27.8633 151.68 28.1059 151.336 28.5909C150.32 28.2733 149.28 28.0435 148.227 27.9039C147.852 27.854 147.476 27.8197 147.107 27.7964C146.784 27.7761 146.464 27.7668 146.145 27.7668C143.743 27.7668 141.872 28.4216 140.533 29.7313C139.194 31.041 138.523 32.8934 138.521 35.2884C138.521 37.3594 139.074 39.0098 140.181 40.2395C141.288 41.4692 142.777 42.0835 144.648 42.0825H145.248C144.407 43.1336 143.413 44.0424 142.303 44.7761C141.302 45.4076 140.32 45.7234 139.356 45.7234C138.999 45.7298 138.648 45.6391 138.336 45.4603C138.024 45.2815 137.763 45.0209 137.578 44.7045C137.294 44.2522 137.102 43.7442 137.014 43.212C136.952 42.8557 136.922 42.4943 136.924 42.1323C136.934 41.7424 136.965 41.3534 137.017 40.967C137.029 40.9063 137.039 40.8471 137.05 40.7941C137.083 40.6273 137.104 40.458 137.111 40.2878C137.111 39.353 136.55 38.8856 135.427 38.8856C134.15 38.8856 133.144 39.3712 132.411 40.3423C131.726 41.249 131.361 42.4657 131.316 43.9925C131.259 44.0486 131.204 44.1 131.148 44.1483C130.29 44.9428 129.55 45.3396 128.926 45.3386C128.735 45.3429 128.545 45.2986 128.374 45.2096C128.203 45.1205 128.055 44.9893 127.944 44.8275C127.695 44.4879 127.57 44.0107 127.57 43.3958C127.57 42.4258 128.007 39.8697 128.88 35.7277C129.658 32.1061 130.048 29.8902 130.049 29.0801C130.049 28.594 129.909 28.2622 129.629 28.0846C129.348 27.907 128.848 27.8182 128.127 27.8182C127.098 27.8182 126.327 28.0285 125.812 28.4491C125.298 28.8698 124.916 29.5651 124.667 30.5352C123.917 33.4163 123.145 35.843 122.352 37.8153C121.558 39.7877 120.807 41.2599 120.1 42.2321C119.399 43.2021 118.815 43.6872 118.346 43.6872C118.197 43.6986 118.047 43.666 117.914 43.5933C117.781 43.5206 117.671 43.4106 117.596 43.2759C117.439 43.0006 117.361 42.5234 117.361 41.8441C117.361 40.712 117.673 38.4468 118.297 35.0485C118.485 34.0774 118.735 32.9936 119.047 31.7971C119.391 30.3088 119.562 29.4353 119.562 29.1767C119.562 28.7238 119.43 28.3842 119.164 28.1578C118.899 27.9314 118.424 27.8182 117.738 27.8182C116.522 27.8182 115.633 28.0285 115.072 28.4491C114.51 28.8698 114.074 29.5651 113.763 30.5352C113.094 32.6334 112.586 34.7833 112.243 36.9647C111.961 38.8638 111.807 40.7811 111.784 42.7026C110.309 43.8274 108.685 44.9641 106.912 46.1128C106.942 45.4336 106.903 44.9808 106.795 44.7543C106.755 44.6532 106.687 44.5668 106.6 44.5063C106.512 44.4457 106.409 44.4138 106.304 44.4147C106.147 44.4146 105.99 44.4307 105.836 44.463C105.697 44.4935 105.557 44.5097 105.415 44.5113C105.278 44.5198 105.141 44.4906 105.018 44.4266C104.895 44.3626 104.79 44.2661 104.714 44.1467C104.564 43.9053 104.48 43.4768 104.48 42.8615C104.48 42.2461 104.62 41.2272 104.9 39.8033C105.181 38.3793 105.501 36.9398 105.836 35.4847C106.614 31.9908 107.004 29.8554 107.005 29.0785C107.005 28.5925 106.865 28.2606 106.585 28.083C106.304 27.9054 105.804 27.8166 105.084 27.8166C104.083 27.8166 103.319 28.0186 102.791 28.4226C102.264 28.8267 101.874 29.5303 101.623 30.5336C100.622 34.3848 99.5307 37.5396 98.3486 39.998C97.1666 42.4564 96.1532 43.6856 95.3085 43.6856C95.1561 43.696 95.0041 43.6603 94.8709 43.5829C94.7376 43.5055 94.6289 43.3896 94.5578 43.2494C94.4017 42.9586 94.3236 42.4912 94.3236 41.8473C94.3236 40.7474 94.6354 38.4821 95.2589 35.0516C95.4471 34.0805 95.6973 32.9967 96.0096 31.8002C96.3539 30.3119 96.5255 29.4384 96.5245 29.1798C96.5245 28.6958 96.3844 28.3479 96.1042 28.136C95.8239 27.9241 95.356 27.8202 94.7004 27.8244C93.5154 27.8244 92.6346 28.0264 92.0581 28.4304C91.4816 28.8345 91.0372 29.5381 90.7249 30.5414C90.162 32.3213 89.7057 34.1356 89.3587 35.9739C88.0707 36.2917 86.7605 36.5037 85.4403 36.608C85.1911 34.1153 84.3403 32.0204 82.888 30.3233C81.4358 28.6262 79.5291 27.7761 77.168 27.773C75.2894 27.7565 73.4487 28.3223 71.8819 29.3979C70.2925 30.4822 69.0454 31.9882 68.1406 33.9159C67.2358 35.8435 66.7854 38.0355 66.7894 40.4919C66.7867 41.3286 66.8642 42.1636 67.0206 42.9845C65.7885 44.7169 64.7276 45.5831 63.8378 45.5831C63.1512 45.5831 62.6838 45.2596 62.4355 44.6126C62.1873 43.9655 62.0627 42.7192 62.0617 40.8736C62.0617 39.7082 62.1238 37.9286 62.2479 35.5346C62.2794 34.9207 62.3109 34.2477 62.3425 33.5202C62.374 32.7926 62.389 32.0573 62.389 31.3126C62.389 29.9525 62.1848 29.024 61.781 28.5208C61.3771 28.0176 60.6114 27.773 59.4885 27.773C58.7799 27.7631 58.0804 27.9383 57.4542 28.2824C56.782 28.6738 56.1739 29.1733 55.6526 29.7625C54.998 30.5071 54.1092 32.0765 52.9862 34.4705C51.8633 36.8645 51.037 38.9833 50.5076 40.8268H50.4145C50.1953 38.3684 50.0862 34.7935 50.0872 30.1021C50.0872 29.293 49.7989 28.7103 49.2224 28.3541C48.6459 27.9979 47.9208 27.8202 47.047 27.8213C46.0181 27.8213 45.1999 28.0555 44.5923 28.5239C43.9848 28.9923 43.5254 29.7287 43.2141 30.733C42.2783 33.8717 41.2804 36.9455 40.2205 39.9544C39.4398 42.1864 38.8318 43.6342 38.3964 44.2979C37.961 44.9615 37.5246 45.2929 37.0872 45.2918C36.7434 45.2918 36.5258 44.9974 36.4342 44.4038C36.3985 44.1516 36.3819 43.8969 36.3846 43.642C36.3846 43.3787 36.4056 43.0422 36.4462 42.6293C36.5062 42.0269 36.6108 41.2646 36.76 40.3423C36.7943 40.2162 36.81 40.0854 36.8065 39.9544C36.8065 39.0799 36.1829 38.6431 34.9358 38.6442C33.6247 38.6442 32.6113 39.1858 31.8957 40.2691C31.4191 41.0021 31.0987 41.8323 30.9559 42.7041C29.5867 43.1497 28.0853 43.5516 26.4519 43.9099C23.7549 44.5194 21.0043 44.8363 18.2442 44.8556C14.3157 44.8556 11.4472 44.3462 9.6386 43.3273C7.83001 42.3084 6.92421 40.7957 6.92121 38.789C6.93038 37.5637 7.33353 36.3767 8.06671 35.4161C8.83139 34.3651 10.063 33.4994 11.7615 32.8191C13.46 32.1388 15.6038 31.767 18.1931 31.7036C20.0638 31.6704 20.9991 30.5866 20.9991 28.4522C20.9991 27.773 20.8585 27.2874 20.5772 26.9956C20.296 26.7037 19.813 26.5422 19.1284 26.5111C16.4161 26.4134 14.4593 25.8713 13.2583 24.8846C12.0572 23.8979 11.4567 22.6443 11.4567 21.1238C11.4567 19.1504 12.2519 17.5811 13.8423 16.4157C15.4327 15.2504 17.5526 14.6683 20.2019 14.6693C22.1666 14.6693 23.5679 15.0328 24.4056 15.7599C24.8127 16.1 25.1384 16.5332 25.3575 17.0256C25.5765 17.518 25.6828 18.0563 25.6682 18.5984C25.6336 19.3297 25.5554 20.0582 25.434 20.7795C25.2856 21.3655 25.2069 21.9683 25.1998 22.5742C25.1998 23.3843 25.45 23.9914 25.9504 24.3954C26.4509 24.7994 27.137 25.0014 28.0088 25.0014C29.2549 25.0014 30.2132 24.411 30.8838 23.2301C31.5544 22.0492 31.8897 20.5042 31.8897 18.5953C31.8897 15.8461 30.9233 13.6053 28.9906 11.8728C27.0579 10.1404 24.1554 9.27527 20.283 9.27735C17.4154 9.27735 14.7811 9.76238 12.38 10.7324C9.97889 11.7025 8.06922 13.0859 6.65097 14.8827C5.25665 16.6185 4.50636 18.8144 4.5356 21.0739C4.52353 22.7521 5.04134 24.3882 6.0099 25.7321C6.99177 27.1228 8.40251 28.0934 10.2421 28.6439C6.87516 29.5173 4.32592 30.933 2.5944 32.8908C0.862874 34.8485 -0.00188656 37.2192 0.000115199 40.0027C-0.0102446 42.0133 0.67845 43.9603 1.93982 45.4866C3.23396 47.1058 5.2062 48.3755 7.85653 49.2957C10.5069 50.2159 13.7983 50.6755 17.7307 50.6744C20.6317 50.6689 23.5267 50.4009 26.3828 49.8737C28.2531 49.5551 30.0934 49.0704 31.8837 48.4248C31.9692 48.5634 32.0608 48.699 32.1584 48.8299C33.0472 50.0274 34.3178 50.6261 35.9703 50.6261C37.934 50.6261 39.5554 49.9874 40.8345 48.7099C42.1137 47.4324 43.1271 45.782 43.8747 43.7588C44.6224 41.7366 45.386 39.1562 46.1657 36.0175H46.2558C46.1627 36.9886 46.1162 38.008 46.1162 39.0757C46.1149 40.8029 46.2086 42.5288 46.3969 44.2449C46.5831 45.943 46.8168 47.2776 47.0981 48.2487C47.3473 49.09 47.628 49.7044 47.9403 50.0918C48.2526 50.4792 48.753 50.6734 49.4416 50.6744C50.0402 50.6922 50.629 50.5139 51.1246 50.165C51.593 49.8254 51.9984 49.1705 52.3407 48.2005L53.1364 46.0194C53.9771 43.6254 54.7408 41.5544 55.4274 39.8064C56.0515 38.1852 56.7834 36.6111 57.6178 35.0952H57.7124C57.212 38.2983 56.9617 40.9675 56.9617 43.1029C56.9617 45.5613 57.3205 47.4376 58.0382 48.7317C58.7558 50.0258 59.9409 50.6734 61.5933 50.6744C63.2131 50.6757 64.7863 50.1116 66.0597 49.0729C66.9247 48.3839 67.7419 47.6327 68.5054 46.8248C69.1177 47.7916 69.908 48.6233 70.8309 49.2723C72.1551 50.2071 73.753 50.6744 75.6246 50.6744C77.8376 50.6744 79.8173 49.8576 81.5639 48.2238C83.3104 46.5901 84.4794 44.4142 85.071 41.6961C86.315 41.6469 87.5531 41.4932 88.7732 41.2365C88.7372 42.0155 88.7192 42.8158 88.7192 43.6373C88.7192 45.6771 89.1696 47.3597 90.0704 48.685C90.9712 50.0102 92.1107 50.6734 93.4889 50.6744C94.768 50.6744 95.9295 50.0596 96.9734 48.8299C98.0173 47.6001 98.789 45.9342 99.2885 43.832C99.2885 45.3193 99.5457 46.5246 100.06 47.448C100.575 48.3713 101.284 48.9129 102.188 49.0729V49.171C99.5382 50.8214 97.4864 52.2931 96.0321 53.5862C94.5778 54.8793 93.5799 56.0524 93.0385 57.1055C92.5011 58.1249 92.2197 59.2682 92.2203 60.4301C92.2203 61.7886 92.6491 62.9207 93.5069 63.8264C94.3646 64.7321 95.4481 65.1854 96.7572 65.1865C98.721 65.1865 100.467 64.4075 101.995 62.8496C103.524 61.2917 104.677 59.0586 105.456 56.1505C105.83 54.7266 106.22 53.0446 106.625 51.1044C109.106 49.5714 111.042 48.3298 112.436 47.3794C112.615 47.8265 112.839 48.2531 113.104 48.6523C113.991 49.9973 115.137 50.6687 116.54 50.6666C117.756 50.6666 118.894 50.0762 119.954 48.8953C121.014 47.7144 121.809 46.024 122.34 43.8243C122.34 45.9908 122.69 47.6734 123.391 48.8719C124.091 50.0705 125.192 50.6687 126.694 50.6666C128.567 50.6929 130.403 50.1166 131.948 49.0168C132.197 48.8392 132.445 48.6538 132.688 48.4575C132.823 48.6209 132.966 48.7769 133.116 48.9249C134.317 50.0881 135.884 50.6703 137.817 50.6713C142.307 50.6713 146.002 47.8406 148.901 42.1791H148.994C148.816 43.1876 148.722 44.2104 148.713 45.2357C148.713 46.9837 149.057 48.3266 149.743 49.2645C150.43 50.2024 151.412 50.6698 152.689 50.6666C154.154 50.6666 155.636 50.1816 157.133 49.2115C158.63 48.2415 160.189 46.7692 161.809 44.7948C162.039 44.5156 162.223 44.2 162.356 43.8601C162.498 43.49 162.594 43.1026 162.641 42.7072C162.681 42.4015 162.7 42.0934 162.698 41.7849C162.704 41.114 162.59 40.5843 162.356 40.1959ZM78.5943 44.2729C77.8616 45.1142 76.9964 45.5348 75.9985 45.5348C75.0977 45.5348 74.3105 45.0675 73.6369 44.1327C72.9633 43.198 72.628 41.8389 72.631 40.0556C72.631 37.7915 73.0439 36.0362 73.8696 34.7899C74.6953 33.5435 75.7322 32.9204 76.9803 32.9204H77.2146C77.1205 33.4339 77.0732 33.9555 77.0734 34.4783C77.0698 35.689 77.3338 36.8844 77.8451 37.9727C78.3428 39.0522 79.11 39.9738 80.0671 40.6414C79.8178 42.2222 79.3269 43.4327 78.5943 44.2729ZM100.084 58.785C99.3355 60.0147 98.5578 60.629 97.7511 60.628C97.0965 60.628 96.7693 60.2723 96.7693 59.5608C96.7693 57.7817 98.3907 55.8888 101.634 53.8822C101.347 55.921 100.831 57.5553 100.084 58.785ZM147.745 38.3528C147.297 38.4141 146.846 38.4464 146.394 38.4494C145.989 38.4613 145.587 38.3854 145.212 38.2266C144.838 38.0678 144.499 37.8295 144.219 37.5271C143.934 37.2266 143.711 36.8698 143.563 36.4779C143.414 36.0861 143.343 35.6673 143.354 35.2463C143.354 34.1132 143.697 33.2397 144.382 32.6259C145.068 32.0121 146.035 31.7047 147.283 31.7036C148.3 31.7283 149.308 31.9083 150.275 32.238C149.664 34.3716 148.815 36.4239 147.745 38.3528Z" fill="#453C60"/>
<path d="M45.3045 19.5228C44.7817 19.5228 44.2589 19.4205 43.736 19.2159C43.2132 19.0113 42.7358 18.676 42.3039 18.21C41.872 17.7781 41.548 17.187 41.3321 16.4369C41.1161 15.6867 41.0081 14.8456 41.0081 13.9136C41.0081 12.8111 41.1104 11.8961 41.315 11.1687C41.5196 10.4413 41.8492 9.84453 42.3039 9.37852C42.7699 8.90114 43.378 8.50333 44.1281 8.18507C44.5146 8.01458 44.8158 7.84977 45.0318 7.69065C45.2477 7.52016 45.4012 7.32693 45.4921 7.11098C45.583 6.88365 45.6285 6.61087 45.6285 6.29261L47.0947 6.27557C47.0947 6.9348 46.9583 7.50879 46.6855 7.99753C46.4127 8.48628 45.924 8.89546 45.2193 9.22508C44.8328 9.40693 44.4691 9.58879 44.1281 9.77065C43.7872 9.95251 43.486 10.1855 43.2245 10.4697C42.9745 10.7425 42.7813 11.1119 42.6449 11.5779C42.5198 12.0439 42.4687 12.6576 42.4914 13.4192L42.2016 13.3851C42.3948 12.8736 42.6505 12.4417 42.9688 12.0893C43.2984 11.737 43.6849 11.4699 44.1281 11.288C44.5714 11.0948 45.0488 10.9982 45.5603 10.9982C46.3673 10.9982 47.072 11.18 47.6744 11.5438C48.2768 11.8961 48.7428 12.3905 49.0724 13.027C49.4134 13.6635 49.5839 14.3967 49.5839 15.2264C49.5839 16.1016 49.402 16.8631 49.0383 17.511C48.6746 18.1589 48.1688 18.659 47.5209 19.0113C46.8844 19.3523 46.1456 19.5228 45.3045 19.5228ZM45.3386 18.1589C45.8728 18.1589 46.3445 18.0338 46.7537 17.7838C47.1743 17.5337 47.4982 17.187 47.7255 16.7438C47.9642 16.3005 48.0836 15.7947 48.0836 15.2264C48.0836 14.6695 47.9699 14.175 47.7426 13.7431C47.5266 13.3112 47.2197 12.9759 46.8219 12.7372C46.4241 12.4872 45.9695 12.3621 45.458 12.3621C44.901 12.3621 44.4066 12.4872 43.9747 12.7372C43.5428 12.9759 43.2018 13.3112 42.9518 13.7431C42.7131 14.175 42.588 14.6695 42.5767 15.2264C42.5653 15.7947 42.6733 16.3005 42.9006 16.7438C43.1393 17.187 43.4689 17.5337 43.8895 17.7838C44.31 18.0338 44.7931 18.1589 45.3386 18.1589ZM51.5852 21.8074V20.5457H52.6252C52.9434 20.5457 53.1764 20.4946 53.3242 20.3923C53.4833 20.3014 53.6027 20.1479 53.6822 19.932L54.0062 19.0795H53.5117L50.2042 10.2139H51.7727L54.4665 17.7497L57.0409 10.2139H58.6094L54.9439 20.3923C54.7734 20.881 54.5176 21.2391 54.1766 21.4664C53.8357 21.6937 53.364 21.8074 52.7616 21.8074H51.5852ZM62.5426 19.25V11.4756H59.2862V10.2139H67.2482V11.4756H63.9918V19.25H62.5426ZM68.5879 19.25V10.2139H70.02V17.0677L73.9413 10.2139H75.6292V19.25H74.1971V12.5326L70.361 19.25H68.5879ZM84.1579 19.25L79.6228 14.732H81.5494L86.2038 19.25H84.1579ZM78.2759 19.25V10.2139H79.7422V19.25H78.2759ZM79.6228 14.732L83.9874 10.2139H85.9992L81.5494 14.732H79.6228Z" fill="#453C60"/>
<defs>
<linearGradient id="paint0_linear_4246_4020" x1="81.3492" y1="9.56871" x2="81.3492" y2="65.1865" gradientUnits="userSpaceOnUse">
<stop stop-color="#26145D"/>
<stop offset="1" stop-color="#2C127A"/>
</linearGradient>
</defs>
</svg>
